<svg xmlns="http://www.w3.org/2000/svg" xmlns:xlink="http://www.w3.org/1999/xlink" width="500" zoomAndPan="magnify" viewBox="0 0 375 374.999991" height="500" preserveAspectRatio="xMidYMid meet" version="1.0"><defs><g/><clipPath id="213f21abb7"><path d="M 93.5625 87.417969 L 315.5625 87.417969 L 315.5625 314.667969 L 93.5625 314.667969 Z M 93.5625 87.417969 " clip-rule="nonzero"/></clipPath><clipPath id="3edeaae2ca"><path d="M 99.464844 93.128906 L 262.964844 93.128906 L 262.964844 256.628906 L 99.464844 256.628906 Z M 99.464844 93.128906 " clip-rule="nonzero"/></clipPath><clipPath id="b7f224e35d"><path d="M 127.820312 120.730469 L 235.820312 120.730469 L 235.820312 228.730469 L 127.820312 228.730469 Z M 127.820312 120.730469 " clip-rule="nonzero"/></clipPath><clipPath id="8f218b2875"><path d="M 297 296 L 319 296 L 319 318 L 297 318 Z M 297 296 " clip-rule="nonzero"/></clipPath><clipPath id="d0ca1769a4"><path d="M 297.796875 311.777344 L 312.648438 296.925781 L 324.3125 308.59375 L 309.464844 323.445312 Z M 297.796875 311.777344 " clip-rule="nonzero"/></clipPath><clipPath id="6ff703f8af"><path d="M 286.136719 300.117188 L 300.984375 285.265625 L 324.320312 308.601562 L 309.472656 323.449219 Z M 286.136719 300.117188 " clip-rule="nonzero"/></clipPath><clipPath id="2e504fdeff"><path d="M 90 208 L 120 208 L 120 239 L 90 239 Z M 90 208 " clip-rule="nonzero"/></clipPath><clipPath id="d71e047143"><path d="M 62.652344 217.863281 L 252.550781 97.183594 L 277.085938 135.796875 L 87.1875 256.476562 Z M 62.652344 217.863281 " clip-rule="nonzero"/></clipPath><clipPath id="20638758c7"><path d="M 62.652344 217.863281 L 252.550781 97.183594 L 277.085938 135.796875 L 87.1875 256.476562 Z M 62.652344 217.863281 " clip-rule="nonzero"/></clipPath><clipPath id="c339f6e3a4"><path d="M 74 220 L 93 220 L 93 240 L 74 240 Z M 74 220 " clip-rule="nonzero"/></clipPath><clipPath id="4395124e5a"><path d="M 62.652344 217.863281 L 252.550781 97.183594 L 277.085938 135.796875 L 87.1875 256.476562 Z M 62.652344 217.863281 " clip-rule="nonzero"/></clipPath><clipPath id="f83889c581"><path d="M 62.652344 217.863281 L 252.550781 97.183594 L 277.085938 135.796875 L 87.1875 256.476562 Z M 62.652344 217.863281 " clip-rule="nonzero"/></clipPath><clipPath id="8de677530b"><path d="M 116 104 L 263 104 L 263 224 L 116 224 Z M 116 104 " clip-rule="nonzero"/></clipPath><clipPath id="258078fb64"><path d="M 62.652344 217.863281 L 252.550781 97.183594 L 277.085938 135.796875 L 87.1875 256.476562 Z M 62.652344 217.863281 " clip-rule="nonzero"/></clipPath><clipPath id="53061104d6"><path d="M 62.652344 217.863281 L 252.550781 97.183594 L 277.085938 135.796875 L 87.1875 256.476562 Z M 62.652344 217.863281 " clip-rule="nonzero"/></clipPath><clipPath id="ed25c58a02"><path d="M 157.183594 124.238281 L 217.933594 124.238281 L 217.933594 228.488281 L 157.183594 228.488281 Z M 157.183594 124.238281 " clip-rule="nonzero"/></clipPath><clipPath id="04959ffc32"><path d="M 81 228 L 201 228 L 201 275 L 81 275 Z M 81 228 " clip-rule="nonzero"/></clipPath><clipPath id="ea848fc37a"><path d="M 81.609375 228.433594 L 191.828125 210.015625 L 202.210938 272.15625 L 91.992188 290.574219 Z M 81.609375 228.433594 " clip-rule="nonzero"/></clipPath><clipPath id="45aa75fc4a"><path d="M 81.609375 228.433594 L 191.828125 210.015625 L 202.210938 272.15625 L 91.992188 290.574219 Z M 81.609375 228.433594 " clip-rule="nonzero"/></clipPath><clipPath id="80d7e137a0"><path d="M 155 192 L 179 192 L 179 211 L 155 211 Z M 155 192 " clip-rule="nonzero"/></clipPath><clipPath id="a67482d786"><path d="M 155.894531 205.140625 L 175.519531 192.671875 L 178.734375 197.734375 L 159.113281 210.203125 Z M 155.894531 205.140625 " clip-rule="nonzero"/></clipPath><clipPath id="2cbb0b02a6"><path d="M 62.648438 217.863281 L 252.546875 97.183594 L 277.085938 135.796875 L 87.1875 256.476562 Z M 62.648438 217.863281 " clip-rule="nonzero"/></clipPath></defs><g clip-path="url(#213f21abb7)"><path fill="#737373" d="M 181.585938 87.417969 C 133.050781 87.417969 93.59375 126.875 93.59375 175.410156 C 93.59375 223.945312 133.050781 263.402344 181.585938 263.402344 C 200.800781 263.402344 218.539062 257.148438 233.023438 246.664062 L 301.078125 314.71875 L 315.71875 300.082031 L 248.289062 232.652344 C 261.523438 217.25 269.578125 197.273438 269.578125 175.410156 C 269.578125 126.875 230.121094 87.417969 181.585938 87.417969 Z M 181.585938 97.773438 C 224.527344 97.773438 259.226562 132.472656 259.226562 175.410156 C 259.226562 218.351562 224.527344 253.050781 181.585938 253.050781 C 138.644531 253.050781 103.945312 218.351562 103.945312 175.410156 C 103.945312 132.472656 138.644531 97.773438 181.585938 97.773438 Z M 181.585938 97.773438 " fill-opacity="1" fill-rule="nonzero"/></g><g clip-path="url(#3edeaae2ca)"><path fill="#1800ad" d="M 262.707031 174.75 C 262.707031 176.082031 262.675781 177.417969 262.609375 178.753906 C 262.546875 180.085938 262.445312 181.417969 262.316406 182.75 C 262.183594 184.078125 262.019531 185.402344 261.824219 186.722656 C 261.628906 188.046875 261.402344 189.363281 261.140625 190.671875 C 260.878906 191.980469 260.585938 193.285156 260.261719 194.582031 C 259.9375 195.875 259.582031 197.164062 259.195312 198.441406 C 258.804688 199.71875 258.386719 200.988281 257.9375 202.246094 C 257.488281 203.503906 257.007812 204.75 256.496094 205.984375 C 255.984375 207.21875 255.445312 208.4375 254.871094 209.644531 C 254.300781 210.851562 253.699219 212.046875 253.070312 213.222656 C 252.441406 214.402344 251.785156 215.5625 251.097656 216.710938 C 250.410156 217.855469 249.695312 218.984375 248.953125 220.09375 C 248.210938 221.203125 247.441406 222.296875 246.644531 223.371094 C 245.851562 224.441406 245.027344 225.496094 244.183594 226.527344 C 243.335938 227.558594 242.460938 228.570312 241.566406 229.5625 C 240.667969 230.550781 239.746094 231.519531 238.800781 232.460938 C 237.859375 233.40625 236.890625 234.328125 235.902344 235.226562 C 234.910156 236.121094 233.898438 236.996094 232.867188 237.84375 C 231.835938 238.6875 230.78125 239.511719 229.710938 240.308594 C 228.636719 241.101562 227.542969 241.871094 226.433594 242.613281 C 225.324219 243.355469 224.195312 244.070312 223.050781 244.757812 C 221.902344 245.445312 220.742188 246.101562 219.5625 246.730469 C 218.386719 247.359375 217.191406 247.960938 215.984375 248.53125 C 214.777344 249.105469 213.558594 249.644531 212.324219 250.15625 C 211.089844 250.667969 209.84375 251.148438 208.585938 251.597656 C 207.328125 252.046875 206.058594 252.46875 204.78125 252.855469 C 203.503906 253.242188 202.214844 253.597656 200.921875 253.921875 C 199.625 254.246094 198.320312 254.539062 197.011719 254.800781 C 195.703125 255.0625 194.386719 255.289062 193.0625 255.484375 C 191.742188 255.683594 190.417969 255.84375 189.089844 255.976562 C 187.757812 256.105469 186.425781 256.207031 185.09375 256.269531 C 183.757812 256.335938 182.421875 256.371094 181.085938 256.371094 C 179.753906 256.371094 178.417969 256.335938 177.082031 256.269531 C 175.75 256.207031 174.417969 256.105469 173.085938 255.976562 C 171.757812 255.84375 170.433594 255.683594 169.113281 255.484375 C 167.789062 255.289062 166.472656 255.0625 165.164062 254.800781 C 163.855469 254.539062 162.550781 254.246094 161.253906 253.921875 C 159.960938 253.597656 158.671875 253.242188 157.394531 252.855469 C 156.117188 252.46875 154.847656 252.046875 153.589844 251.597656 C 152.332031 251.148438 151.085938 250.667969 149.851562 250.15625 C 148.617188 249.644531 147.398438 249.105469 146.191406 248.53125 C 144.984375 247.960938 143.789062 247.359375 142.613281 246.730469 C 141.433594 246.101562 140.273438 245.445312 139.125 244.757812 C 137.980469 244.070312 136.851562 243.355469 135.742188 242.613281 C 134.632812 241.871094 133.539062 241.101562 132.464844 240.308594 C 131.394531 239.511719 130.339844 238.6875 129.308594 237.84375 C 128.277344 236.996094 127.265625 236.121094 126.273438 235.226562 C 125.285156 234.328125 124.316406 233.40625 123.371094 232.460938 C 122.429688 231.519531 121.507812 230.550781 120.609375 229.5625 C 119.714844 228.570312 118.839844 227.558594 117.992188 226.527344 C 117.144531 225.496094 116.324219 224.441406 115.527344 223.371094 C 114.734375 222.296875 113.964844 221.203125 113.222656 220.09375 C 112.480469 218.984375 111.765625 217.855469 111.078125 216.710938 C 110.390625 215.5625 109.734375 214.402344 109.105469 213.222656 C 108.476562 212.046875 107.875 210.851562 107.304688 209.644531 C 106.730469 208.4375 106.191406 207.21875 105.679688 205.984375 C 105.167969 204.75 104.6875 203.503906 104.238281 202.246094 C 103.789062 200.988281 103.367188 199.71875 102.980469 198.441406 C 102.59375 197.164062 102.238281 195.875 101.914062 194.582031 C 101.589844 193.285156 101.296875 191.980469 101.035156 190.671875 C 100.773438 189.363281 100.546875 188.046875 100.351562 186.722656 C 100.152344 185.402344 99.992188 184.078125 99.859375 182.75 C 99.730469 181.417969 99.628906 180.085938 99.566406 178.753906 C 99.5 177.417969 99.464844 176.082031 99.464844 174.75 C 99.464844 173.414062 99.5 172.078125 99.566406 170.742188 C 99.628906 169.410156 99.730469 168.078125 99.859375 166.746094 C 99.992188 165.417969 100.152344 164.09375 100.351562 162.773438 C 100.546875 161.449219 100.773438 160.132812 101.035156 158.824219 C 101.296875 157.515625 101.589844 156.210938 101.914062 154.914062 C 102.238281 153.621094 102.59375 152.332031 102.980469 151.054688 C 103.367188 149.777344 103.789062 148.507812 104.238281 147.25 C 104.6875 145.992188 105.167969 144.746094 105.679688 143.511719 C 106.191406 142.277344 106.730469 141.058594 107.304688 139.851562 C 107.875 138.644531 108.476562 137.449219 109.105469 136.273438 C 109.734375 135.09375 110.390625 133.933594 111.078125 132.785156 C 111.765625 131.640625 112.480469 130.511719 113.222656 129.402344 C 113.964844 128.292969 114.734375 127.199219 115.527344 126.125 C 116.324219 125.054688 117.144531 124 117.992188 122.96875 C 118.839844 121.9375 119.714844 120.925781 120.609375 119.933594 C 121.507812 118.945312 122.429688 117.976562 123.371094 117.035156 C 124.316406 116.089844 125.285156 115.167969 126.273438 114.269531 C 127.265625 113.375 128.277344 112.5 129.308594 111.652344 C 130.339844 110.808594 131.394531 109.984375 132.464844 109.1875 C 133.539062 108.394531 134.632812 107.625 135.742188 106.882812 C 136.851562 106.140625 137.980469 105.425781 139.125 104.738281 C 140.273438 104.050781 141.433594 103.394531 142.613281 102.765625 C 143.789062 102.136719 144.984375 101.535156 146.191406 100.964844 C 147.398438 100.390625 148.617188 99.851562 149.851562 99.339844 C 151.085938 98.828125 152.332031 98.347656 153.589844 97.898438 C 154.847656 97.449219 156.117188 97.03125 157.394531 96.640625 C 158.671875 96.253906 159.960938 95.898438 161.253906 95.574219 C 162.550781 95.25 163.855469 94.957031 165.164062 94.695312 C 166.472656 94.433594 167.789062 94.207031 169.113281 94.011719 C 170.433594 93.8125 171.757812 93.652344 173.085938 93.519531 C 174.417969 93.390625 175.75 93.289062 177.082031 93.226562 C 178.417969 93.160156 179.753906 93.128906 181.085938 93.128906 C 182.421875 93.128906 183.757812 93.160156 185.09375 93.226562 C 186.425781 93.289062 187.757812 93.390625 189.089844 93.519531 C 190.417969 93.652344 191.742188 93.8125 193.0625 94.011719 C 194.386719 94.207031 195.703125 94.433594 197.011719 94.695312 C 198.320312 94.957031 199.625 95.25 200.921875 95.574219 C 202.214844 95.898438 203.503906 96.253906 204.78125 96.640625 C 206.058594 97.03125 207.328125 97.449219 208.585938 97.898438 C 209.84375 98.347656 211.089844 98.828125 212.324219 99.339844 C 213.558594 99.851562 214.777344 100.390625 215.984375 100.964844 C 217.191406 101.535156 218.386719 102.136719 219.5625 102.765625 C 220.742188 103.394531 221.902344 104.050781 223.050781 104.738281 C 224.195312 105.425781 225.324219 106.140625 226.433594 106.882812 C 227.542969 107.625 228.636719 108.394531 229.710938 109.1875 C 230.78125 109.984375 231.835938 110.808594 232.867188 111.652344 C 233.898438 112.5 234.910156 113.375 235.902344 114.269531 C 236.890625 115.167969 237.859375 116.089844 238.800781 117.035156 C 239.746094 117.976562 240.667969 118.945312 241.566406 119.933594 C 242.460938 120.925781 243.335938 121.9375 244.183594 122.96875 C 245.027344 124 245.851562 125.054688 246.644531 126.125 C 247.441406 127.199219 248.210938 128.292969 248.953125 129.402344 C 249.695312 130.511719 250.410156 131.640625 251.097656 132.785156 C 251.785156 133.933594 252.441406 135.09375 253.070312 136.273438 C 253.699219 137.449219 254.300781 138.644531 254.871094 139.851562 C 255.445312 141.058594 255.984375 142.277344 256.496094 143.511719 C 257.007812 144.746094 257.488281 145.992188 257.9375 147.25 C 258.386719 148.507812 258.804688 149.777344 259.195312 151.054688 C 259.582031 152.332031 259.9375 153.621094 260.261719 154.914062 C 260.585938 156.210938 260.878906 157.515625 261.140625 158.824219 C 261.402344 160.132812 261.628906 161.449219 261.824219 162.773438 C 262.023438 164.09375 262.183594 165.417969 262.316406 166.746094 C 262.445312 168.078125 262.546875 169.410156 262.609375 170.742188 C 262.675781 172.078125 262.707031 173.414062 262.707031 174.75 Z M 262.707031 174.75 " fill-opacity="1" fill-rule="nonzero"/></g><g clip-path="url(#b7f224e35d)"><path fill="#ffffff" d="M 235.855469 174.75 C 235.855469 176.519531 235.769531 178.28125 235.597656 180.042969 C 235.421875 181.804688 235.164062 183.550781 234.816406 185.289062 C 234.472656 187.023438 234.042969 188.738281 233.53125 190.429688 C 233.015625 192.121094 232.421875 193.785156 231.746094 195.421875 C 231.066406 197.054688 230.3125 198.652344 229.476562 200.210938 C 228.644531 201.773438 227.734375 203.289062 226.753906 204.757812 C 225.769531 206.230469 224.71875 207.648438 223.59375 209.015625 C 222.472656 210.386719 221.285156 211.695312 220.035156 212.945312 C 218.785156 214.195312 217.472656 215.382812 216.105469 216.503906 C 214.738281 217.628906 213.320312 218.679688 211.847656 219.664062 C 210.378906 220.644531 208.863281 221.554688 207.300781 222.386719 C 205.742188 223.222656 204.144531 223.976562 202.511719 224.65625 C 200.875 225.332031 199.210938 225.925781 197.519531 226.441406 C 195.824219 226.953125 194.113281 227.382812 192.375 227.726562 C 190.640625 228.074219 188.894531 228.332031 187.132812 228.507812 C 185.371094 228.679688 183.609375 228.765625 181.839844 228.765625 C 180.070312 228.765625 178.304688 228.679688 176.542969 228.507812 C 174.785156 228.332031 173.035156 228.074219 171.300781 227.726562 C 169.566406 227.382812 167.851562 226.953125 166.15625 226.441406 C 164.464844 225.925781 162.800781 225.332031 161.167969 224.65625 C 159.53125 223.976562 157.933594 223.222656 156.375 222.386719 C 154.816406 221.554688 153.300781 220.644531 151.828125 219.664062 C 150.355469 218.679688 148.9375 217.628906 147.570312 216.503906 C 146.203125 215.382812 144.894531 214.195312 143.640625 212.945312 C 142.390625 211.695312 141.203125 210.386719 140.082031 209.015625 C 138.960938 207.648438 137.90625 206.230469 136.925781 204.757812 C 135.941406 203.289062 135.035156 201.773438 134.199219 200.210938 C 133.367188 198.652344 132.609375 197.054688 131.933594 195.421875 C 131.253906 193.785156 130.660156 192.121094 130.148438 190.429688 C 129.632812 188.738281 129.203125 187.023438 128.859375 185.289062 C 128.515625 183.550781 128.253906 181.804688 128.082031 180.042969 C 127.90625 178.28125 127.820312 176.519531 127.820312 174.75 C 127.820312 172.980469 127.90625 171.214844 128.082031 169.453125 C 128.253906 167.695312 128.515625 165.945312 128.859375 164.210938 C 129.203125 162.476562 129.632812 160.761719 130.148438 159.070312 C 130.660156 157.375 131.253906 155.710938 131.933594 154.078125 C 132.609375 152.441406 133.367188 150.84375 134.199219 149.285156 C 135.035156 147.726562 135.941406 146.210938 136.925781 144.738281 C 137.90625 143.265625 138.960938 141.847656 140.082031 140.480469 C 141.203125 139.113281 142.390625 137.804688 143.640625 136.550781 C 144.894531 135.300781 146.203125 134.113281 147.570312 132.992188 C 148.9375 131.871094 150.355469 130.816406 151.828125 129.835938 C 153.300781 128.851562 154.816406 127.945312 156.375 127.109375 C 157.933594 126.277344 159.53125 125.519531 161.167969 124.84375 C 162.800781 124.167969 164.464844 123.570312 166.15625 123.058594 C 167.851562 122.542969 169.566406 122.113281 171.300781 121.769531 C 173.035156 121.425781 174.785156 121.164062 176.542969 120.992188 C 178.304688 120.816406 180.070312 120.730469 181.839844 120.730469 C 183.609375 120.730469 185.371094 120.816406 187.132812 120.992188 C 188.894531 121.164062 190.640625 121.425781 192.375 121.769531 C 194.113281 122.113281 195.824219 122.542969 197.519531 123.058594 C 199.210938 123.570312 200.875 124.167969 202.511719 124.84375 C 204.144531 125.519531 205.742188 126.277344 207.300781 127.109375 C 208.863281 127.945312 210.378906 128.851562 211.847656 129.835938 C 213.320312 130.816406 214.738281 131.871094 216.105469 132.992188 C 217.472656 134.113281 218.785156 135.300781 220.035156 136.550781 C 221.285156 137.804688 222.472656 139.113281 223.59375 140.480469 C 224.71875 141.847656 225.769531 143.265625 226.753906 144.738281 C 227.734375 146.210938 228.644531 147.726562 229.476562 149.285156 C 230.3125 150.84375 231.066406 152.441406 231.746094 154.078125 C 232.421875 155.710938 233.015625 157.375 233.53125 159.070312 C 234.042969 160.761719 234.472656 162.476562 234.816406 164.210938 C 235.164062 165.945312 235.421875 167.695312 235.597656 169.453125 C 235.769531 171.214844 235.855469 172.980469 235.855469 174.75 Z M 235.855469 174.75 " fill-opacity="1" fill-rule="nonzero"/></g><g clip-path="url(#8f218b2875)"><g clip-path="url(#d0ca1769a4)"><g clip-path="url(#6ff703f8af)"><path fill="#737373" d="M 312.703125 296.628906 C 313.457031 297.382812 314.160156 298.179688 314.800781 299.015625 C 315.445312 299.851562 316.023438 300.714844 316.53125 301.597656 C 317.039062 302.484375 317.46875 303.378906 317.824219 304.28125 C 318.175781 305.183594 318.445312 306.074219 318.632812 306.957031 C 318.816406 307.839844 318.914062 308.695312 318.921875 309.523438 C 318.929688 310.355469 318.851562 311.140625 318.683594 311.886719 C 318.519531 312.628906 318.265625 313.320312 317.929688 313.949219 C 317.59375 314.582031 317.179688 315.144531 316.683594 315.636719 C 316.191406 316.128906 315.628906 316.542969 314.996094 316.882812 C 314.367188 317.21875 313.679688 317.46875 312.933594 317.636719 C 312.191406 317.804688 311.402344 317.882812 310.574219 317.875 C 309.742188 317.863281 308.886719 317.769531 308.003906 317.582031 C 307.121094 317.398438 306.230469 317.128906 305.328125 316.777344 C 304.425781 316.421875 303.535156 315.992188 302.648438 315.484375 C 301.761719 314.972656 300.898438 314.398438 300.0625 313.753906 C 299.226562 313.109375 298.429688 312.410156 297.675781 311.65625 C 296.921875 310.902344 296.222656 310.105469 295.578125 309.269531 C 294.933594 308.433594 294.359375 307.570312 293.851562 306.683594 C 293.339844 305.800781 292.910156 304.90625 292.558594 304.003906 C 292.203125 303.101562 291.933594 302.210938 291.75 301.328125 C 291.566406 300.445312 291.46875 299.589844 291.457031 298.757812 C 291.449219 297.929688 291.527344 297.144531 291.695312 296.398438 C 291.863281 295.652344 292.113281 294.964844 292.453125 294.335938 C 292.789062 293.703125 293.203125 293.140625 293.695312 292.648438 C 294.191406 292.15625 294.75 291.738281 295.382812 291.402344 C 296.015625 291.066406 296.703125 290.816406 297.445312 290.648438 C 298.191406 290.480469 298.976562 290.402344 299.808594 290.410156 C 300.636719 290.417969 301.492188 290.515625 302.375 290.703125 C 303.257812 290.886719 304.148438 291.15625 305.050781 291.507812 C 305.953125 291.863281 306.847656 292.292969 307.734375 292.800781 C 308.621094 293.308594 309.480469 293.886719 310.316406 294.53125 C 311.152344 295.175781 311.949219 295.875 312.703125 296.628906 Z M 312.703125 296.628906 " fill-opacity="1" fill-rule="nonzero"/></g></g></g><g clip-path="url(#2e504fdeff)"><g clip-path="url(#d71e047143)"><g clip-path="url(#20638758c7)"><path fill="#e1e024" d="M 96.203125 209.097656 C 104.234375 219.375 107.609375 220.128906 119.246094 214.234375 C 119.789062 213.957031 120.261719 214.703125 119.78125 215.078125 C 109.503906 223.109375 108.753906 226.484375 114.648438 238.117188 C 114.921875 238.660156 114.175781 239.136719 113.800781 238.65625 C 105.773438 228.378906 102.394531 227.628906 90.761719 233.519531 C 90.21875 233.796875 89.746094 233.050781 90.222656 232.675781 C 100.5 224.644531 101.253906 221.269531 95.359375 209.636719 C 95.085938 209.09375 95.828125 208.617188 96.203125 209.097656 Z M 96.203125 209.097656 " fill-opacity="1" fill-rule="nonzero"/></g></g></g><g clip-path="url(#c339f6e3a4)"><g clip-path="url(#4395124e5a)"><g clip-path="url(#f83889c581)"><path fill="#e1e024" d="M 77.820312 220.945312 C 82.710938 227.203125 84.765625 227.660156 91.851562 224.070312 C 92.183594 223.90625 92.472656 224.359375 92.179688 224.585938 C 85.921875 229.476562 85.460938 231.535156 89.050781 238.621094 C 89.21875 238.953125 88.765625 239.238281 88.539062 238.949219 C 83.648438 232.6875 81.589844 232.230469 74.503906 235.820312 C 74.171875 235.988281 73.882812 235.535156 74.175781 235.304688 C 80.4375 230.414062 80.894531 228.355469 77.304688 221.269531 C 77.136719 220.941406 77.589844 220.652344 77.820312 220.945312 Z M 77.820312 220.945312 " fill-opacity="1" fill-rule="nonzero"/></g></g></g><g clip-path="url(#8de677530b)"><g clip-path="url(#258078fb64)"><g clip-path="url(#53061104d6)"><path fill="#e1e024" d="M 179.535156 191.722656 C 157.277344 205.867188 135.46875 216.269531 117.8125 221.839844 C 116.746094 222.175781 116.511719 223.371094 117.5625 223.125 C 136.894531 218.589844 163.152344 206.851562 190.050781 189.757812 C 237.71875 159.464844 269.332031 123.847656 260.660156 110.203125 C 257.914062 105.882812 251.457031 104.289062 242.402344 105.082031 C 239.789062 105.3125 237.777344 108.585938 240.019531 108.957031 C 244.09375 109.628906 247.070312 111.214844 248.707031 113.785156 C 257.199219 127.152344 226.230469 162.046875 179.535156 191.722656 Z M 179.535156 191.722656 " fill-opacity="1" fill-rule="nonzero"/></g></g></g><g fill="#ffffff" fill-opacity="1"><g transform="translate(135.726736, 229.566986)"><g><path d="M 2.59375 -0.609375 C 2.4375 -0.734375 2.320312 -0.875 2.25 -1.03125 C 2.1875 -1.195312 2.164062 -1.363281 2.1875 -1.53125 C 2.207031 -1.707031 2.273438 -1.875 2.390625 -2.03125 C 2.492188 -2.164062 2.625 -2.265625 2.78125 -2.328125 C 2.945312 -2.398438 3.117188 -2.425781 3.296875 -2.40625 C 3.472656 -2.382812 3.640625 -2.3125 3.796875 -2.1875 C 3.960938 -2.0625 4.078125 -1.914062 4.140625 -1.75 C 4.210938 -1.59375 4.234375 -1.425781 4.203125 -1.25 C 4.179688 -1.070312 4.117188 -0.914062 4.015625 -0.78125 C 3.898438 -0.625 3.765625 -0.515625 3.609375 -0.453125 C 3.453125 -0.390625 3.285156 -0.367188 3.109375 -0.390625 C 2.929688 -0.410156 2.757812 -0.484375 2.59375 -0.609375 Z M 2.59375 -0.609375 "/></g></g></g><g fill="#ffffff" fill-opacity="1"><g transform="translate(140.408375, 233.083188)"><g><path d="M 2.5625 1.8125 C 2.25 1.613281 1.984375 1.40625 1.765625 1.1875 C 1.546875 0.96875 1.359375 0.734375 1.203125 0.484375 C 1.054688 0.242188 0.925781 0.0078125 0.8125 -0.21875 L 1.484375 -1.296875 C 1.566406 -1.035156 1.6875 -0.765625 1.84375 -0.484375 C 2 -0.203125 2.179688 0.0546875 2.390625 0.296875 C 2.597656 0.546875 2.835938 0.753906 3.109375 0.921875 C 3.359375 1.078125 3.613281 1.160156 3.875 1.171875 C 4.144531 1.191406 4.394531 1.144531 4.625 1.03125 C 4.863281 0.914062 5.066406 0.71875 5.234375 0.4375 C 5.421875 0.132812 5.445312 -0.191406 5.3125 -0.546875 C 5.1875 -0.910156 4.941406 -1.335938 4.578125 -1.828125 C 4.367188 -2.085938 4.1875 -2.351562 4.03125 -2.625 C 3.875 -2.894531 3.75 -3.164062 3.65625 -3.4375 C 3.570312 -3.71875 3.546875 -4 3.578125 -4.28125 C 3.617188 -4.5625 3.734375 -4.859375 3.921875 -5.171875 C 4.109375 -5.484375 4.332031 -5.726562 4.59375 -5.90625 C 4.863281 -6.082031 5.15625 -6.195312 5.46875 -6.25 C 5.78125 -6.3125 6.097656 -6.304688 6.421875 -6.234375 C 6.753906 -6.171875 7.082031 -6.039062 7.40625 -5.84375 C 7.75 -5.632812 8.039062 -5.394531 8.28125 -5.125 C 8.53125 -4.851562 8.75 -4.546875 8.9375 -4.203125 L 8.3125 -3.1875 C 8.175781 -3.539062 7.984375 -3.867188 7.734375 -4.171875 C 7.484375 -4.484375 7.203125 -4.738281 6.890625 -4.9375 C 6.628906 -5.09375 6.375 -5.175781 6.125 -5.1875 C 5.875 -5.207031 5.640625 -5.160156 5.421875 -5.046875 C 5.203125 -4.941406 5.023438 -4.769531 4.890625 -4.53125 C 4.773438 -4.34375 4.710938 -4.15625 4.703125 -3.96875 C 4.703125 -3.789062 4.738281 -3.609375 4.8125 -3.421875 C 4.882812 -3.242188 4.984375 -3.0625 5.109375 -2.875 C 5.234375 -2.6875 5.367188 -2.503906 5.515625 -2.328125 C 5.835938 -1.921875 6.085938 -1.523438 6.265625 -1.140625 C 6.453125 -0.753906 6.546875 -0.378906 6.546875 -0.015625 C 6.554688 0.335938 6.453125 0.691406 6.234375 1.046875 C 6.015625 1.398438 5.757812 1.675781 5.46875 1.875 C 5.1875 2.070312 4.882812 2.195312 4.5625 2.25 C 4.238281 2.3125 3.90625 2.300781 3.5625 2.21875 C 3.226562 2.144531 2.894531 2.007812 2.5625 1.8125 Z M 2.5625 1.8125 "/></g></g></g><g fill="#ffffff" fill-opacity="1"><g transform="translate(148.153319, 237.63964)"><g><path d="M 3.4375 1.796875 C 3 1.597656 2.628906 1.335938 2.328125 1.015625 C 2.035156 0.691406 1.8125 0.328125 1.65625 -0.078125 C 1.507812 -0.484375 1.445312 -0.910156 1.46875 -1.359375 C 1.488281 -1.804688 1.601562 -2.257812 1.8125 -2.71875 C 2.007812 -3.164062 2.269531 -3.546875 2.59375 -3.859375 C 2.914062 -4.171875 3.273438 -4.40625 3.671875 -4.5625 C 4.078125 -4.71875 4.5 -4.789062 4.9375 -4.78125 C 5.382812 -4.769531 5.828125 -4.664062 6.265625 -4.46875 C 6.617188 -4.3125 6.914062 -4.125 7.15625 -3.90625 C 7.394531 -3.6875 7.582031 -3.441406 7.71875 -3.171875 L 7.375 -2.203125 C 7.25 -2.503906 7.0625 -2.773438 6.8125 -3.015625 C 6.570312 -3.265625 6.289062 -3.460938 5.96875 -3.609375 C 5.65625 -3.742188 5.335938 -3.8125 5.015625 -3.8125 C 4.703125 -3.820312 4.398438 -3.765625 4.109375 -3.640625 C 3.828125 -3.523438 3.566406 -3.347656 3.328125 -3.109375 C 3.097656 -2.878906 2.910156 -2.601562 2.765625 -2.28125 C 2.609375 -1.945312 2.519531 -1.613281 2.5 -1.28125 C 2.488281 -0.957031 2.53125 -0.644531 2.625 -0.34375 C 2.726562 -0.0507812 2.882812 0.207031 3.09375 0.4375 C 3.3125 0.675781 3.582031 0.863281 3.90625 1 C 4.21875 1.144531 4.539062 1.222656 4.875 1.234375 C 5.21875 1.253906 5.546875 1.207031 5.859375 1.09375 L 5.421875 2.015625 C 5.117188 2.085938 4.804688 2.109375 4.484375 2.078125 C 4.160156 2.054688 3.8125 1.960938 3.4375 1.796875 Z M 3.4375 1.796875 "/></g></g></g><g fill="#ffffff" fill-opacity="1"><g transform="translate(156.460409, 241.14722)"><g><path d="M 3.84375 -6.65625 C 3.644531 -6.71875 3.492188 -6.835938 3.390625 -7.015625 C 3.296875 -7.191406 3.28125 -7.375 3.34375 -7.5625 C 3.40625 -7.757812 3.53125 -7.898438 3.71875 -7.984375 C 3.90625 -8.066406 4.097656 -8.078125 4.296875 -8.015625 C 4.515625 -7.941406 4.664062 -7.816406 4.75 -7.640625 C 4.832031 -7.460938 4.84375 -7.273438 4.78125 -7.078125 C 4.71875 -6.890625 4.597656 -6.753906 4.421875 -6.671875 C 4.253906 -6.585938 4.0625 -6.582031 3.84375 -6.65625 Z M 0.96875 0.3125 L 3 -5.796875 L 4.03125 -5.4375 L 2 0.671875 Z M 0.96875 0.3125 "/></g></g></g><g fill="#ffffff" fill-opacity="1"><g transform="translate(161.855745, 242.904585)"><g><path d="M 7.15625 -2.203125 C 7.144531 -2.171875 7.128906 -2.109375 7.109375 -2.015625 C 7.085938 -1.929688 7.0625 -1.84375 7.03125 -1.75 C 7.007812 -1.664062 6.988281 -1.582031 6.96875 -1.5 C 6.945312 -1.425781 6.929688 -1.378906 6.921875 -1.359375 L 2.140625 -2.40625 C 2.097656 -2.101562 2.109375 -1.816406 2.171875 -1.546875 C 2.242188 -1.273438 2.363281 -1.019531 2.53125 -0.78125 C 2.695312 -0.550781 2.90625 -0.359375 3.15625 -0.203125 C 3.40625 -0.046875 3.691406 0.0664062 4.015625 0.140625 C 4.335938 0.203125 4.628906 0.226562 4.890625 0.21875 C 5.160156 0.207031 5.414062 0.171875 5.65625 0.109375 C 5.90625 0.0546875 6.160156 -0.0078125 6.421875 -0.09375 L 6.125 0.875 C 5.9375 0.925781 5.71875 0.976562 5.46875 1.03125 C 5.21875 1.082031 4.941406 1.113281 4.640625 1.125 C 4.347656 1.132812 4.03125 1.101562 3.6875 1.03125 C 3.207031 0.925781 2.785156 0.742188 2.421875 0.484375 C 2.066406 0.234375 1.78125 -0.0703125 1.5625 -0.4375 C 1.351562 -0.8125 1.210938 -1.222656 1.140625 -1.671875 C 1.078125 -2.128906 1.101562 -2.609375 1.21875 -3.109375 C 1.320312 -3.585938 1.492188 -4.007812 1.734375 -4.375 C 1.984375 -4.75 2.273438 -5.050781 2.609375 -5.28125 C 2.941406 -5.519531 3.3125 -5.675781 3.71875 -5.75 C 4.132812 -5.832031 4.554688 -5.828125 4.984375 -5.734375 C 5.429688 -5.640625 5.8125 -5.472656 6.125 -5.234375 C 6.4375 -5.003906 6.679688 -4.726562 6.859375 -4.40625 C 7.046875 -4.082031 7.160156 -3.734375 7.203125 -3.359375 C 7.253906 -2.984375 7.238281 -2.597656 7.15625 -2.203125 Z M 2.34375 -3.234375 L 6.203125 -2.40625 C 6.304688 -2.84375 6.316406 -3.226562 6.234375 -3.5625 C 6.148438 -3.894531 5.984375 -4.164062 5.734375 -4.375 C 5.492188 -4.59375 5.195312 -4.742188 4.84375 -4.828125 C 4.425781 -4.910156 4.050781 -4.898438 3.71875 -4.796875 C 3.382812 -4.703125 3.097656 -4.519531 2.859375 -4.25 C 2.617188 -3.988281 2.445312 -3.648438 2.34375 -3.234375 Z M 2.34375 -3.234375 "/></g></g></g><g fill="#ffffff" fill-opacity="1"><g transform="translate(171.297106, 244.789237)"><g><path d="M 4.765625 -6.3125 C 5.265625 -6.28125 5.675781 -6.148438 6 -5.921875 C 6.332031 -5.691406 6.570312 -5.351562 6.71875 -4.90625 C 6.863281 -4.46875 6.910156 -3.90625 6.859375 -3.21875 L 6.578125 0.5 L 5.484375 0.421875 L 5.765625 -3.3125 C 5.816406 -3.9375 5.734375 -4.429688 5.515625 -4.796875 C 5.304688 -5.160156 4.929688 -5.363281 4.390625 -5.40625 C 4.160156 -5.425781 3.925781 -5.394531 3.6875 -5.3125 C 3.457031 -5.238281 3.238281 -5.125 3.03125 -4.96875 C 2.820312 -4.820312 2.628906 -4.640625 2.453125 -4.421875 L 2.109375 0.15625 L 1.015625 0.078125 L 1.5 -6.34375 L 2.453125 -6.28125 L 2.515625 -5.40625 C 2.722656 -5.59375 2.953125 -5.757812 3.203125 -5.90625 C 3.453125 -6.050781 3.707031 -6.160156 3.96875 -6.234375 C 4.238281 -6.304688 4.503906 -6.332031 4.765625 -6.3125 Z M 4.765625 -6.3125 "/></g></g></g><g fill="#ffffff" fill-opacity="1"><g transform="translate(181.43234, 245.316923)"><g><path d="M -0.109375 -5.671875 L 1.953125 -8.359375 L 2.09375 -8.359375 L 2.171875 -6.546875 L 4.234375 -6.65625 L 4.296875 -5.71875 L 2.203125 -5.609375 L 2.359375 -2.28125 C 2.378906 -1.863281 2.492188 -1.535156 2.703125 -1.296875 C 2.921875 -1.066406 3.210938 -0.960938 3.578125 -0.984375 C 3.785156 -0.992188 3.976562 -1.019531 4.15625 -1.0625 C 4.34375 -1.113281 4.5 -1.164062 4.625 -1.21875 C 4.757812 -1.28125 4.859375 -1.328125 4.921875 -1.359375 L 4.984375 -0.375 C 4.890625 -0.320312 4.765625 -0.265625 4.609375 -0.203125 C 4.453125 -0.140625 4.28125 -0.0820312 4.09375 -0.03125 C 3.914062 0.0078125 3.722656 0.0351562 3.515625 0.046875 C 2.984375 0.0664062 2.554688 -0.015625 2.234375 -0.203125 C 1.921875 -0.390625 1.6875 -0.660156 1.53125 -1.015625 C 1.375 -1.367188 1.285156 -1.785156 1.265625 -2.265625 L 1.109375 -5.546875 L -0.09375 -5.5 Z M -0.109375 -5.671875 "/></g></g></g><g fill="#ffffff" fill-opacity="1"><g transform="translate(189.058849, 244.772706)"><g><path d="M 0.453125 -7.671875 C 0.242188 -7.640625 0.0625 -7.679688 -0.09375 -7.796875 C -0.257812 -7.910156 -0.359375 -8.066406 -0.390625 -8.265625 C -0.421875 -8.460938 -0.375 -8.640625 -0.25 -8.796875 C -0.125 -8.953125 0.0390625 -9.046875 0.25 -9.078125 C 0.476562 -9.109375 0.671875 -9.066406 0.828125 -8.953125 C 0.984375 -8.835938 1.078125 -8.679688 1.109375 -8.484375 C 1.140625 -8.285156 1.09375 -8.109375 0.96875 -7.953125 C 0.851562 -7.796875 0.679688 -7.703125 0.453125 -7.671875 Z M 1 -0.140625 L 0.078125 -6.515625 L 1.171875 -6.671875 L 2.09375 -0.296875 Z M 1 -0.140625 "/></g></g></g><g fill="#ffffff" fill-opacity="1"><g transform="translate(194.668189, 243.930545)"><g><path d="M 1.5625 -7.265625 C 2.039062 -7.390625 2.457031 -7.429688 2.8125 -7.390625 C 3.175781 -7.359375 3.484375 -7.25 3.734375 -7.0625 C 3.992188 -6.882812 4.207031 -6.65625 4.375 -6.375 C 4.539062 -6.09375 4.671875 -5.765625 4.765625 -5.390625 L 5.75 -1.46875 L 4.84375 -1.234375 L 4.5 -1.984375 C 4.3125 -1.617188 4.054688 -1.296875 3.734375 -1.015625 C 3.421875 -0.734375 3.066406 -0.546875 2.671875 -0.453125 C 2.253906 -0.335938 1.878906 -0.316406 1.546875 -0.390625 C 1.210938 -0.472656 0.929688 -0.628906 0.703125 -0.859375 C 0.484375 -1.097656 0.320312 -1.414062 0.21875 -1.8125 C 0.113281 -2.21875 0.125 -2.59375 0.25 -2.9375 C 0.375 -3.28125 0.582031 -3.570312 0.875 -3.8125 C 1.175781 -4.0625 1.554688 -4.242188 2.015625 -4.359375 C 2.285156 -4.421875 2.582031 -4.460938 2.90625 -4.484375 C 3.226562 -4.515625 3.535156 -4.539062 3.828125 -4.5625 L 3.703125 -5.09375 C 3.648438 -5.28125 3.582031 -5.46875 3.5 -5.65625 C 3.414062 -5.84375 3.296875 -6 3.140625 -6.125 C 2.992188 -6.257812 2.800781 -6.347656 2.5625 -6.390625 C 2.320312 -6.441406 2.023438 -6.421875 1.671875 -6.328125 C 1.265625 -6.222656 0.890625 -6.0625 0.546875 -5.84375 C 0.210938 -5.625 -0.101562 -5.363281 -0.40625 -5.0625 L -0.5625 -6.046875 C -0.257812 -6.335938 0.0664062 -6.585938 0.421875 -6.796875 C 0.785156 -7.003906 1.164062 -7.160156 1.5625 -7.265625 Z M 2.734375 -1.4375 C 3.097656 -1.53125 3.40625 -1.703125 3.65625 -1.953125 C 3.914062 -2.210938 4.113281 -2.523438 4.25 -2.890625 L 4.046875 -3.734375 C 3.796875 -3.734375 3.539062 -3.71875 3.28125 -3.6875 C 3.019531 -3.664062 2.742188 -3.617188 2.453125 -3.546875 C 2.148438 -3.472656 1.894531 -3.378906 1.6875 -3.265625 C 1.476562 -3.160156 1.328125 -3.019531 1.234375 -2.84375 C 1.148438 -2.664062 1.144531 -2.4375 1.21875 -2.15625 C 1.3125 -1.789062 1.484375 -1.550781 1.734375 -1.4375 C 1.992188 -1.332031 2.328125 -1.332031 2.734375 -1.4375 Z M 2.734375 -1.4375 "/></g></g></g><g fill="#ffffff" fill-opacity="1"><g transform="translate(203.767785, 241.378155)"><g/></g></g><g fill="#ffffff" fill-opacity="1"><g transform="translate(209.205459, 239.341091)"><g><path d="M 0.828125 -7.875 C 1.203125 -8.0625 1.585938 -8.160156 1.984375 -8.171875 C 2.378906 -8.191406 2.753906 -8.125 3.109375 -7.96875 C 3.472656 -7.8125 3.816406 -7.578125 4.140625 -7.265625 C 4.460938 -6.960938 4.738281 -6.582031 4.96875 -6.125 C 5.195312 -5.664062 5.335938 -5.210938 5.390625 -4.765625 C 5.441406 -4.316406 5.410156 -3.894531 5.296875 -3.5 C 5.179688 -3.101562 5 -2.75 4.75 -2.4375 C 4.507812 -2.132812 4.203125 -1.890625 3.828125 -1.703125 C 3.453125 -1.515625 3.070312 -1.425781 2.6875 -1.4375 C 2.300781 -1.457031 1.910156 -1.535156 1.515625 -1.671875 L 3.078125 1.4375 L 2.109375 1.9375 L -2 -6.203125 L -1.15625 -6.625 L -0.671875 -5.984375 C -0.578125 -6.242188 -0.460938 -6.492188 -0.328125 -6.734375 C -0.191406 -6.972656 -0.03125 -7.1875 0.15625 -7.375 C 0.34375 -7.570312 0.566406 -7.738281 0.828125 -7.875 Z M 3.234375 -2.4375 C 3.492188 -2.570312 3.710938 -2.753906 3.890625 -2.984375 C 4.078125 -3.210938 4.207031 -3.46875 4.28125 -3.75 C 4.351562 -4.039062 4.375 -4.347656 4.34375 -4.671875 C 4.3125 -5.003906 4.210938 -5.332031 4.046875 -5.65625 C 3.878906 -5.988281 3.675781 -6.269531 3.4375 -6.5 C 3.195312 -6.726562 2.941406 -6.894531 2.671875 -7 C 2.398438 -7.113281 2.117188 -7.164062 1.828125 -7.15625 C 1.535156 -7.144531 1.253906 -7.070312 0.984375 -6.9375 C 0.660156 -6.769531 0.394531 -6.53125 0.1875 -6.21875 C -0.0078125 -5.914062 -0.164062 -5.578125 -0.28125 -5.203125 L 1.09375 -2.5 C 1.457031 -2.332031 1.820312 -2.238281 2.1875 -2.21875 C 2.550781 -2.195312 2.898438 -2.269531 3.234375 -2.4375 Z M 3.234375 -2.4375 "/></g></g></g><g fill="#ffffff" fill-opacity="1"><g transform="translate(218.395343, 234.48101)"><g><path d="M 3.328125 -2.09375 C 2.929688 -1.8125 2.515625 -1.617188 2.078125 -1.515625 C 1.640625 -1.421875 1.207031 -1.410156 0.78125 -1.484375 C 0.351562 -1.554688 -0.046875 -1.710938 -0.421875 -1.953125 C -0.796875 -2.203125 -1.128906 -2.53125 -1.421875 -2.9375 C -1.703125 -3.34375 -1.894531 -3.765625 -2 -4.203125 C -2.113281 -4.640625 -2.132812 -5.070312 -2.0625 -5.5 C -1.988281 -5.925781 -1.832031 -6.328125 -1.59375 -6.703125 C -1.351562 -7.085938 -1.035156 -7.421875 -0.640625 -7.703125 C -0.242188 -7.984375 0.171875 -8.171875 0.609375 -8.265625 C 1.054688 -8.367188 1.492188 -8.382812 1.921875 -8.3125 C 2.347656 -8.238281 2.753906 -8.078125 3.140625 -7.828125 C 3.523438 -7.585938 3.859375 -7.265625 4.140625 -6.859375 C 4.429688 -6.453125 4.625 -6.03125 4.71875 -5.59375 C 4.820312 -5.15625 4.835938 -4.722656 4.765625 -4.296875 C 4.691406 -3.867188 4.53125 -3.460938 4.28125 -3.078125 C 4.039062 -2.703125 3.722656 -2.375 3.328125 -2.09375 Z M 2.796875 -2.859375 C 3.066406 -3.054688 3.285156 -3.285156 3.453125 -3.546875 C 3.617188 -3.804688 3.722656 -4.085938 3.765625 -4.390625 C 3.804688 -4.703125 3.785156 -5.019531 3.703125 -5.34375 C 3.617188 -5.664062 3.472656 -5.96875 3.265625 -6.25 C 3.066406 -6.539062 2.832031 -6.773438 2.5625 -6.953125 C 2.289062 -7.128906 2 -7.25 1.6875 -7.3125 C 1.382812 -7.375 1.082031 -7.375 0.78125 -7.3125 C 0.476562 -7.257812 0.191406 -7.132812 -0.078125 -6.9375 C -0.347656 -6.75 -0.5625 -6.519531 -0.71875 -6.25 C -0.882812 -5.976562 -0.988281 -5.6875 -1.03125 -5.375 C -1.082031 -5.0625 -1.066406 -4.75 -0.984375 -4.4375 C -0.898438 -4.125 -0.757812 -3.820312 -0.5625 -3.53125 C -0.351562 -3.25 -0.113281 -3.015625 0.15625 -2.828125 C 0.425781 -2.640625 0.710938 -2.515625 1.015625 -2.453125 C 1.328125 -2.398438 1.632812 -2.40625 1.9375 -2.46875 C 2.238281 -2.539062 2.523438 -2.671875 2.796875 -2.859375 Z M 2.796875 -2.859375 "/></g></g></g><g fill="#ffffff" fill-opacity="1"><g transform="translate(226.801754, 228.237837)"><g><path d="M -3.703125 -4.28125 L -3.84375 -7.671875 L -3.734375 -7.765625 L -2.5 -6.4375 L -0.984375 -7.828125 L -0.34375 -7.125 L -1.890625 -5.71875 L 0.359375 -3.265625 C 0.640625 -2.953125 0.9375 -2.773438 1.25 -2.734375 C 1.570312 -2.691406 1.867188 -2.796875 2.140625 -3.046875 C 2.296875 -3.179688 2.425781 -3.320312 2.53125 -3.46875 C 2.632812 -3.625 2.71875 -3.765625 2.78125 -3.890625 C 2.84375 -4.015625 2.890625 -4.113281 2.921875 -4.1875 L 3.59375 -3.46875 C 3.539062 -3.375 3.476562 -3.25 3.40625 -3.09375 C 3.332031 -2.945312 3.238281 -2.796875 3.125 -2.640625 C 3.007812 -2.492188 2.875 -2.347656 2.71875 -2.203125 C 2.332031 -1.847656 1.957031 -1.640625 1.59375 -1.578125 C 1.226562 -1.515625 0.875 -1.570312 0.53125 -1.75 C 0.1875 -1.925781 -0.144531 -2.191406 -0.46875 -2.546875 L -2.6875 -4.96875 L -3.578125 -4.15625 Z M -3.703125 -4.28125 "/></g></g></g><g fill="#ffffff" fill-opacity="1"><g transform="translate(232.430387, 222.938114)"><g><path d="M 1.453125 -7.359375 C 1.484375 -7.335938 1.53125 -7.296875 1.59375 -7.234375 C 1.65625 -7.171875 1.71875 -7.101562 1.78125 -7.03125 C 1.851562 -6.957031 1.914062 -6.894531 1.96875 -6.84375 C 2.03125 -6.789062 2.066406 -6.753906 2.078125 -6.734375 L -1.09375 -3.015625 C -0.851562 -2.828125 -0.597656 -2.703125 -0.328125 -2.640625 C -0.0546875 -2.578125 0.21875 -2.566406 0.5 -2.609375 C 0.78125 -2.648438 1.050781 -2.738281 1.3125 -2.875 C 1.570312 -3.019531 1.804688 -3.21875 2.015625 -3.46875 C 2.234375 -3.71875 2.398438 -3.960938 2.515625 -4.203125 C 2.628906 -4.441406 2.71875 -4.679688 2.78125 -4.921875 C 2.851562 -5.171875 2.910156 -5.425781 2.953125 -5.6875 L 3.671875 -4.984375 C 3.628906 -4.796875 3.570312 -4.578125 3.5 -4.328125 C 3.425781 -4.085938 3.320312 -3.832031 3.1875 -3.5625 C 3.0625 -3.289062 2.882812 -3.023438 2.65625 -2.765625 C 2.34375 -2.390625 1.988281 -2.101562 1.59375 -1.90625 C 1.195312 -1.707031 0.78125 -1.601562 0.34375 -1.59375 C -0.0820312 -1.582031 -0.507812 -1.65625 -0.9375 -1.8125 C -1.363281 -1.96875 -1.769531 -2.210938 -2.15625 -2.546875 C -2.53125 -2.867188 -2.820312 -3.222656 -3.03125 -3.609375 C -3.25 -4.003906 -3.378906 -4.40625 -3.421875 -4.8125 C -3.460938 -5.21875 -3.421875 -5.617188 -3.296875 -6.015625 C -3.179688 -6.410156 -2.984375 -6.773438 -2.703125 -7.109375 C -2.398438 -7.460938 -2.070312 -7.71875 -1.71875 -7.875 C -1.363281 -8.039062 -1.003906 -8.128906 -0.640625 -8.140625 C -0.273438 -8.148438 0.0859375 -8.085938 0.453125 -7.953125 C 0.816406 -7.816406 1.148438 -7.617188 1.453125 -7.359375 Z M -1.75 -3.59375 L 0.828125 -6.59375 C 0.484375 -6.90625 0.144531 -7.097656 -0.1875 -7.171875 C -0.519531 -7.253906 -0.835938 -7.238281 -1.140625 -7.125 C -1.441406 -7.019531 -1.710938 -6.828125 -1.953125 -6.546875 C -2.222656 -6.234375 -2.394531 -5.90625 -2.46875 -5.5625 C -2.539062 -5.21875 -2.515625 -4.875 -2.390625 -4.53125 C -2.265625 -4.195312 -2.050781 -3.882812 -1.75 -3.59375 Z M -1.75 -3.59375 "/></g></g></g><g fill="#ffffff" fill-opacity="1"><g transform="translate(238.562949, 215.51567)"><g><path d="M -3.296875 -7.1875 C -3.035156 -7.601562 -2.722656 -7.898438 -2.359375 -8.078125 C -2.003906 -8.265625 -1.597656 -8.316406 -1.140625 -8.234375 C -0.691406 -8.160156 -0.175781 -7.941406 0.40625 -7.578125 L 3.546875 -5.5625 L 2.96875 -4.640625 L -0.1875 -6.65625 C -0.71875 -7 -1.191406 -7.160156 -1.609375 -7.140625 C -2.023438 -7.117188 -2.378906 -6.878906 -2.671875 -6.421875 C -2.796875 -6.222656 -2.878906 -6.003906 -2.921875 -5.765625 C -2.960938 -5.523438 -2.96875 -5.273438 -2.9375 -5.015625 C -2.90625 -4.753906 -2.835938 -4.5 -2.734375 -4.25 L 1.140625 -1.78125 L 0.546875 -0.859375 L -4.875 -4.328125 L -4.359375 -5.125 L -3.578125 -4.765625 C -3.648438 -5.046875 -3.6875 -5.332031 -3.6875 -5.625 C -3.695312 -5.914062 -3.671875 -6.191406 -3.609375 -6.453125 C -3.546875 -6.722656 -3.441406 -6.96875 -3.296875 -7.1875 Z M -3.296875 -7.1875 "/></g></g></g><g fill="#ffffff" fill-opacity="1"><g transform="translate(243.825965, 206.83816)"><g><path d="M -5.03125 -2.578125 L -6.4375 -5.671875 L -6.375 -5.8125 L -4.734375 -5.03125 L -3.859375 -6.890625 L -3 -6.484375 L -3.890625 -4.59375 L -0.890625 -3.15625 C -0.515625 -2.976562 -0.171875 -2.925781 0.140625 -3 C 0.453125 -3.082031 0.6875 -3.289062 0.84375 -3.625 C 0.925781 -3.8125 0.988281 -3.992188 1.03125 -4.171875 C 1.070312 -4.347656 1.097656 -4.503906 1.109375 -4.640625 C 1.128906 -4.785156 1.140625 -4.894531 1.140625 -4.96875 L 2.03125 -4.546875 C 2.019531 -4.453125 2.003906 -4.320312 1.984375 -4.15625 C 1.972656 -3.988281 1.945312 -3.8125 1.90625 -3.625 C 1.863281 -3.4375 1.796875 -3.25 1.703125 -3.0625 C 1.472656 -2.582031 1.195312 -2.25 0.875 -2.0625 C 0.5625 -1.875 0.210938 -1.796875 -0.171875 -1.828125 C -0.554688 -1.859375 -0.960938 -1.976562 -1.390625 -2.1875 L -4.359375 -3.59375 L -4.875 -2.515625 Z M -5.03125 -2.578125 "/></g></g></g><g fill="#ffffff" fill-opacity="1"><g transform="translate(246.958321, 199.863355)"><g><path d="M -6.546875 -4.046875 C -6.617188 -3.847656 -6.738281 -3.703125 -6.90625 -3.609375 C -7.082031 -3.515625 -7.265625 -3.503906 -7.453125 -3.578125 C -7.648438 -3.648438 -7.785156 -3.773438 -7.859375 -3.953125 C -7.941406 -4.140625 -7.945312 -4.332031 -7.875 -4.53125 C -7.789062 -4.75 -7.660156 -4.898438 -7.484375 -4.984375 C -7.316406 -5.066406 -7.132812 -5.070312 -6.9375 -5 C -6.75 -4.925781 -6.613281 -4.800781 -6.53125 -4.625 C -6.457031 -4.457031 -6.460938 -4.265625 -6.546875 -4.046875 Z M 0.34375 -0.953125 L -5.703125 -3.15625 L -5.328125 -4.1875 L 0.71875 -1.984375 Z M 0.34375 -0.953125 "/></g></g></g><g fill="#ffffff" fill-opacity="1"><g transform="translate(248.873369, 194.524247)"><g><path d="M -5.65625 -4.828125 C -5.53125 -5.296875 -5.367188 -5.675781 -5.171875 -5.96875 C -4.972656 -6.269531 -4.734375 -6.488281 -4.453125 -6.625 C -4.171875 -6.769531 -3.863281 -6.851562 -3.53125 -6.875 C -3.207031 -6.894531 -2.859375 -6.859375 -2.484375 -6.765625 L 1.4375 -5.765625 L 1.21875 -4.84375 L 0.390625 -4.921875 C 0.617188 -4.585938 0.78125 -4.210938 0.875 -3.796875 C 0.976562 -3.390625 0.976562 -2.984375 0.875 -2.578125 C 0.769531 -2.160156 0.601562 -1.820312 0.375 -1.5625 C 0.15625 -1.300781 -0.109375 -1.125 -0.421875 -1.03125 C -0.742188 -0.945312 -1.101562 -0.953125 -1.5 -1.046875 C -1.914062 -1.148438 -2.238281 -1.335938 -2.46875 -1.609375 C -2.707031 -1.878906 -2.863281 -2.207031 -2.9375 -2.59375 C -3.007812 -2.976562 -2.988281 -3.394531 -2.875 -3.84375 C -2.800781 -4.113281 -2.703125 -4.394531 -2.578125 -4.6875 C -2.453125 -4.988281 -2.328125 -5.273438 -2.203125 -5.546875 L -2.734375 -5.671875 C -2.929688 -5.722656 -3.128906 -5.753906 -3.328125 -5.765625 C -3.535156 -5.773438 -3.734375 -5.742188 -3.921875 -5.671875 C -4.109375 -5.609375 -4.273438 -5.476562 -4.421875 -5.28125 C -4.566406 -5.09375 -4.6875 -4.820312 -4.78125 -4.46875 C -4.882812 -4.0625 -4.921875 -3.65625 -4.890625 -3.25 C -4.859375 -2.851562 -4.773438 -2.453125 -4.640625 -2.046875 L -5.59375 -2.375 C -5.707031 -2.769531 -5.769531 -3.175781 -5.78125 -3.59375 C -5.789062 -4.007812 -5.75 -4.421875 -5.65625 -4.828125 Z M 0.03125 -3.078125 C 0.113281 -3.441406 0.101562 -3.796875 0 -4.140625 C -0.101562 -4.492188 -0.28125 -4.820312 -0.53125 -5.125 L -1.375 -5.34375 C -1.476562 -5.113281 -1.585938 -4.878906 -1.703125 -4.640625 C -1.816406 -4.398438 -1.910156 -4.132812 -1.984375 -3.84375 C -2.054688 -3.539062 -2.09375 -3.269531 -2.09375 -3.03125 C -2.09375 -2.789062 -2.035156 -2.585938 -1.921875 -2.421875 C -1.804688 -2.265625 -1.613281 -2.15625 -1.34375 -2.09375 C -0.96875 -2 -0.671875 -2.035156 -0.453125 -2.203125 C -0.234375 -2.378906 -0.0703125 -2.671875 0.03125 -3.078125 Z M 0.03125 -3.078125 "/></g></g></g><g fill="#ffffff" fill-opacity="1"><g transform="translate(250.935673, 185.301538)"><g/></g></g><g fill="#ffffff" fill-opacity="1"><g transform="translate(251.692936, 179.561072)"><g><path d="M -3.46875 -6.640625 C -3.4375 -6.640625 -3.375 -6.632812 -3.28125 -6.625 C -3.195312 -6.625 -3.101562 -6.617188 -3 -6.609375 C -2.90625 -6.597656 -2.816406 -6.585938 -2.734375 -6.578125 C -2.660156 -6.578125 -2.613281 -6.566406 -2.59375 -6.546875 L -2.75 -1.65625 C -2.445312 -1.675781 -2.164062 -1.742188 -1.90625 -1.859375 C -1.65625 -1.972656 -1.429688 -2.132812 -1.234375 -2.34375 C -1.046875 -2.550781 -0.894531 -2.789062 -0.78125 -3.0625 C -0.664062 -3.332031 -0.601562 -3.632812 -0.59375 -3.96875 C -0.582031 -4.289062 -0.609375 -4.582031 -0.671875 -4.84375 C -0.734375 -5.113281 -0.8125 -5.363281 -0.90625 -5.59375 C -1.007812 -5.820312 -1.128906 -6.054688 -1.265625 -6.296875 L -0.265625 -6.1875 C -0.171875 -6.019531 -0.078125 -5.816406 0.015625 -5.578125 C 0.109375 -5.335938 0.1875 -5.070312 0.25 -4.78125 C 0.320312 -4.488281 0.351562 -4.171875 0.34375 -3.828125 C 0.320312 -3.335938 0.21875 -2.890625 0.03125 -2.484375 C -0.144531 -2.085938 -0.394531 -1.742188 -0.71875 -1.453125 C -1.050781 -1.171875 -1.429688 -0.957031 -1.859375 -0.8125 C -2.296875 -0.675781 -2.769531 -0.613281 -3.28125 -0.625 C -3.769531 -0.644531 -4.21875 -0.738281 -4.625 -0.90625 C -5.039062 -1.070312 -5.390625 -1.300781 -5.671875 -1.59375 C -5.960938 -1.882812 -6.1875 -2.222656 -6.34375 -2.609375 C -6.5 -2.992188 -6.570312 -3.40625 -6.5625 -3.84375 C -6.550781 -4.300781 -6.457031 -4.707031 -6.28125 -5.0625 C -6.101562 -5.414062 -5.875 -5.710938 -5.59375 -5.953125 C -5.3125 -6.191406 -4.988281 -6.367188 -4.625 -6.484375 C -4.257812 -6.597656 -3.875 -6.648438 -3.46875 -6.640625 Z M -3.609375 -1.703125 L -3.484375 -5.65625 C -3.941406 -5.6875 -4.328125 -5.625 -4.640625 -5.46875 C -4.953125 -5.320312 -5.191406 -5.109375 -5.359375 -4.828125 C -5.523438 -4.554688 -5.613281 -4.238281 -5.625 -3.875 C -5.632812 -3.457031 -5.5625 -3.09375 -5.40625 -2.78125 C -5.25 -2.46875 -5.015625 -2.21875 -4.703125 -2.03125 C -4.398438 -1.84375 -4.035156 -1.734375 -3.609375 -1.703125 Z M -3.609375 -1.703125 "/></g></g></g><g fill="#ffffff" fill-opacity="1"><g transform="translate(251.778397, 169.985795)"><g><path d="M -0.046875 -2.65625 C -0.0234375 -2.40625 -0.0195312 -2.15625 -0.03125 -1.90625 C -0.0507812 -1.65625 -0.0859375 -1.414062 -0.140625 -1.1875 C -0.191406 -0.96875 -0.257812 -0.773438 -0.34375 -0.609375 L -1.46875 -0.46875 C -1.351562 -0.664062 -1.257812 -0.878906 -1.1875 -1.109375 C -1.125 -1.347656 -1.078125 -1.585938 -1.046875 -1.828125 C -1.023438 -2.066406 -1.019531 -2.289062 -1.03125 -2.5 C -1.070312 -2.875 -1.175781 -3.148438 -1.34375 -3.328125 C -1.519531 -3.515625 -1.769531 -3.597656 -2.09375 -3.578125 C -2.207031 -3.554688 -2.304688 -3.519531 -2.390625 -3.46875 C -2.484375 -3.425781 -2.5625 -3.351562 -2.625 -3.25 C -2.6875 -3.144531 -2.75 -3.003906 -2.8125 -2.828125 C -2.882812 -2.648438 -2.960938 -2.425781 -3.046875 -2.15625 C -3.242188 -1.582031 -3.503906 -1.140625 -3.828125 -0.828125 C -4.148438 -0.523438 -4.539062 -0.351562 -5 -0.3125 C -5.332031 -0.28125 -5.628906 -0.332031 -5.890625 -0.46875 C -6.160156 -0.601562 -6.382812 -0.804688 -6.5625 -1.078125 C -6.75 -1.347656 -6.859375 -1.675781 -6.890625 -2.0625 C -6.910156 -2.3125 -6.898438 -2.597656 -6.859375 -2.921875 C -6.828125 -3.253906 -6.757812 -3.5625 -6.65625 -3.84375 L -5.578125 -3.96875 C -5.648438 -3.789062 -5.710938 -3.597656 -5.765625 -3.390625 C -5.816406 -3.191406 -5.851562 -2.992188 -5.875 -2.796875 C -5.894531 -2.597656 -5.898438 -2.425781 -5.890625 -2.28125 C -5.859375 -2 -5.773438 -1.769531 -5.640625 -1.59375 C -5.515625 -1.425781 -5.316406 -1.351562 -5.046875 -1.375 C -4.878906 -1.382812 -4.734375 -1.429688 -4.609375 -1.515625 C -4.492188 -1.597656 -4.390625 -1.722656 -4.296875 -1.890625 C -4.203125 -2.054688 -4.097656 -2.285156 -3.984375 -2.578125 C -3.828125 -3.066406 -3.664062 -3.460938 -3.5 -3.765625 C -3.34375 -4.078125 -3.15625 -4.304688 -2.9375 -4.453125 C -2.726562 -4.609375 -2.472656 -4.703125 -2.171875 -4.734375 C -1.765625 -4.765625 -1.410156 -4.695312 -1.109375 -4.53125 C -0.804688 -4.363281 -0.5625 -4.117188 -0.375 -3.796875 C -0.195312 -3.472656 -0.0859375 -3.09375 -0.046875 -2.65625 Z M -0.046875 -2.65625 "/></g></g></g><g fill="#ffffff" fill-opacity="1"><g transform="translate(250.881953, 161.984552)"><g><path d="M -5.578125 0.96875 L -8.546875 -0.640625 L -8.578125 -0.78125 L -6.8125 -1.15625 L -7.234375 -3.171875 L -6.296875 -3.359375 L -5.875 -1.3125 L -2.609375 -1.984375 C -2.203125 -2.066406 -1.898438 -2.234375 -1.703125 -2.484375 C -1.503906 -2.734375 -1.441406 -3.035156 -1.515625 -3.390625 C -1.554688 -3.597656 -1.613281 -3.785156 -1.6875 -3.953125 C -1.769531 -4.117188 -1.847656 -4.257812 -1.921875 -4.375 C -1.992188 -4.5 -2.050781 -4.59375 -2.09375 -4.65625 L -1.125 -4.84375 C -1.070312 -4.769531 -1 -4.660156 -0.90625 -4.515625 C -0.820312 -4.367188 -0.738281 -4.207031 -0.65625 -4.03125 C -0.582031 -3.863281 -0.523438 -3.675781 -0.484375 -3.46875 C -0.378906 -2.945312 -0.394531 -2.515625 -0.53125 -2.171875 C -0.664062 -1.835938 -0.898438 -1.566406 -1.234375 -1.359375 C -1.566406 -1.148438 -1.96875 -1 -2.4375 -0.90625 L -5.65625 -0.234375 L -5.40625 0.9375 Z M -5.578125 0.96875 "/></g></g></g><g fill="#ffffff" fill-opacity="1"><g transform="translate(249.176991, 154.525692)"><g><path d="M -2.46875 -1 C -2.40625 -0.8125 -2.390625 -0.628906 -2.421875 -0.453125 C -2.460938 -0.273438 -2.546875 -0.125 -2.671875 0 C -2.796875 0.113281 -2.945312 0.195312 -3.125 0.25 C -3.300781 0.300781 -3.46875 0.3125 -3.625 0.28125 C -3.789062 0.25 -3.941406 0.171875 -4.078125 0.046875 C -4.210938 -0.078125 -4.3125 -0.234375 -4.375 -0.421875 C -4.4375 -0.617188 -4.441406 -0.800781 -4.390625 -0.96875 C -4.347656 -1.144531 -4.269531 -1.296875 -4.15625 -1.421875 C -4.039062 -1.554688 -3.894531 -1.648438 -3.71875 -1.703125 C -3.539062 -1.753906 -3.363281 -1.757812 -3.1875 -1.71875 C -3.019531 -1.675781 -2.875 -1.59375 -2.75 -1.46875 C -2.625 -1.351562 -2.53125 -1.195312 -2.46875 -1 Z M -2.46875 -1 "/></g></g></g><g fill="#ffffff" fill-opacity="1"><g transform="translate(119.857, 182.876977)"><g><path d="M -6.796875 -6.25 C -6.742188 -6.59375 -6.632812 -6.925781 -6.46875 -7.25 C -6.300781 -7.570312 -6.082031 -7.859375 -5.8125 -8.109375 C -5.539062 -8.367188 -5.226562 -8.578125 -4.875 -8.734375 C -4.519531 -8.890625 -4.128906 -8.972656 -3.703125 -8.984375 C -3.210938 -8.992188 -2.753906 -8.910156 -2.328125 -8.734375 C -1.898438 -8.554688 -1.519531 -8.296875 -1.1875 -7.953125 C -0.863281 -7.609375 -0.609375 -7.191406 -0.421875 -6.703125 C -0.234375 -6.210938 -0.128906 -5.660156 -0.109375 -5.046875 L -0.03125 -1.40625 L -12.1875 -1.125 L -12.25 -4.03125 C -12.269531 -4.789062 -12.160156 -5.453125 -11.921875 -6.015625 C -11.679688 -6.585938 -11.332031 -7.03125 -10.875 -7.34375 C -10.425781 -7.664062 -9.894531 -7.835938 -9.28125 -7.859375 C -8.851562 -7.867188 -8.476562 -7.796875 -8.15625 -7.640625 C -7.832031 -7.492188 -7.554688 -7.296875 -7.328125 -7.046875 C -7.097656 -6.804688 -6.921875 -6.539062 -6.796875 -6.25 Z M -10.859375 -2.765625 L -6.984375 -2.859375 L -7.03125 -4.296875 C -7.03125 -4.703125 -7.125 -5.050781 -7.3125 -5.34375 C -7.507812 -5.644531 -7.757812 -5.875 -8.0625 -6.03125 C -8.363281 -6.195312 -8.691406 -6.273438 -9.046875 -6.265625 C -9.421875 -6.253906 -9.75 -6.15625 -10.03125 -5.96875 C -10.3125 -5.789062 -10.523438 -5.53125 -10.671875 -5.1875 C -10.828125 -4.84375 -10.898438 -4.429688 -10.890625 -3.953125 Z M -1.5 -4.859375 C -1.507812 -5.390625 -1.617188 -5.835938 -1.828125 -6.203125 C -2.046875 -6.578125 -2.328125 -6.859375 -2.671875 -7.046875 C -3.023438 -7.242188 -3.398438 -7.335938 -3.796875 -7.328125 C -4.085938 -7.316406 -4.363281 -7.25 -4.625 -7.125 C -4.882812 -7 -5.113281 -6.828125 -5.3125 -6.609375 C -5.507812 -6.398438 -5.660156 -6.160156 -5.765625 -5.890625 C -5.878906 -5.617188 -5.9375 -5.332031 -5.9375 -5.03125 L -5.875 -2.875 L -1.453125 -2.984375 Z M -1.5 -4.859375 "/></g></g></g><g fill="#ffffff" fill-opacity="1"><g transform="translate(119.958115, 170.651896)"><g><path d="M -10.265625 -3.484375 C -10.296875 -3.179688 -10.414062 -2.9375 -10.625 -2.75 C -10.84375 -2.5625 -11.09375 -2.484375 -11.375 -2.515625 C -11.664062 -2.554688 -11.890625 -2.691406 -12.046875 -2.921875 C -12.210938 -3.148438 -12.28125 -3.414062 -12.25 -3.71875 C -12.207031 -4.03125 -12.078125 -4.273438 -11.859375 -4.453125 C -11.648438 -4.628906 -11.398438 -4.695312 -11.109375 -4.65625 C -10.828125 -4.625 -10.601562 -4.5 -10.4375 -4.28125 C -10.28125 -4.0625 -10.222656 -3.796875 -10.265625 -3.484375 Z M 0.171875 -1.40625 L -8.84375 -2.53125 L -8.65625 -4.078125 L 0.359375 -2.953125 Z M 0.171875 -1.40625 "/></g></g></g><g fill="#ffffff" fill-opacity="1"><g transform="translate(120.765165, 163.683558)"><g><path d="M 1.828125 -5.21875 C 1.640625 -4.5625 1.347656 -3.984375 0.953125 -3.484375 C 0.554688 -2.992188 0.09375 -2.597656 -0.4375 -2.296875 C -0.976562 -2.003906 -1.5625 -1.828125 -2.1875 -1.765625 C -2.820312 -1.703125 -3.476562 -1.765625 -4.15625 -1.953125 C -4.820312 -2.148438 -5.40625 -2.441406 -5.90625 -2.828125 C -6.414062 -3.222656 -6.816406 -3.6875 -7.109375 -4.21875 C -7.398438 -4.757812 -7.582031 -5.34375 -7.65625 -5.96875 C -7.726562 -6.601562 -7.671875 -7.25 -7.484375 -7.90625 C -7.285156 -8.582031 -6.988281 -9.164062 -6.59375 -9.65625 C -6.195312 -10.144531 -5.734375 -10.535156 -5.203125 -10.828125 C -4.671875 -11.128906 -4.085938 -11.3125 -3.453125 -11.375 C -2.816406 -11.445312 -2.164062 -11.382812 -1.5 -11.1875 C -0.820312 -11 -0.234375 -10.707031 0.265625 -10.3125 C 0.765625 -9.914062 1.160156 -9.445312 1.453125 -8.90625 C 1.753906 -8.375 1.9375 -7.789062 2 -7.15625 C 2.070312 -6.53125 2.015625 -5.882812 1.828125 -5.21875 Z M 0.5625 -5.609375 C 0.695312 -6.054688 0.734375 -6.492188 0.671875 -6.921875 C 0.609375 -7.359375 0.460938 -7.765625 0.234375 -8.140625 C 0.015625 -8.523438 -0.273438 -8.859375 -0.640625 -9.140625 C -1.003906 -9.421875 -1.425781 -9.628906 -1.90625 -9.765625 C -2.382812 -9.910156 -2.851562 -9.960938 -3.3125 -9.921875 C -3.78125 -9.878906 -4.207031 -9.753906 -4.59375 -9.546875 C -4.976562 -9.335938 -5.3125 -9.066406 -5.59375 -8.734375 C -5.875 -8.398438 -6.082031 -8.007812 -6.21875 -7.5625 C -6.34375 -7.113281 -6.375 -6.664062 -6.3125 -6.21875 C -6.257812 -5.78125 -6.125 -5.375 -5.90625 -5 C -5.6875 -4.625 -5.390625 -4.296875 -5.015625 -4.015625 C -4.648438 -3.734375 -4.226562 -3.519531 -3.75 -3.375 C -3.269531 -3.238281 -2.800781 -3.191406 -2.34375 -3.234375 C -1.882812 -3.285156 -1.457031 -3.410156 -1.0625 -3.609375 C -0.675781 -3.804688 -0.335938 -4.078125 -0.046875 -4.421875 C 0.234375 -4.765625 0.4375 -5.160156 0.5625 -5.609375 Z M 0.5625 -5.609375 "/></g></g></g><g fill="#ffffff" fill-opacity="1"><g transform="translate(124.692682, 150.763516)"><g><path d="M 3.125 -5.265625 C 2.78125 -4.628906 2.359375 -4.101562 1.859375 -3.6875 C 1.359375 -3.28125 0.804688 -2.984375 0.203125 -2.796875 C -0.398438 -2.617188 -1.023438 -2.5625 -1.671875 -2.625 C -2.316406 -2.695312 -2.953125 -2.898438 -3.578125 -3.234375 L -10.171875 -6.796875 L -9.390625 -8.25 L -2.828125 -4.703125 C -2.390625 -4.460938 -1.941406 -4.316406 -1.484375 -4.265625 C -1.023438 -4.222656 -0.585938 -4.257812 -0.171875 -4.375 C 0.234375 -4.5 0.609375 -4.691406 0.953125 -4.953125 C 1.296875 -5.222656 1.578125 -5.566406 1.796875 -5.984375 C 2.015625 -6.398438 2.144531 -6.828125 2.1875 -7.265625 C 2.226562 -7.703125 2.179688 -8.128906 2.046875 -8.546875 C 1.910156 -8.960938 1.695312 -9.34375 1.40625 -9.6875 C 1.125 -10.03125 0.757812 -10.320312 0.3125 -10.5625 L -6.234375 -14.09375 L -5.453125 -15.546875 L 1.140625 -11.984375 C 1.765625 -11.648438 2.28125 -11.226562 2.6875 -10.71875 C 3.101562 -10.21875 3.398438 -9.664062 3.578125 -9.0625 C 3.765625 -8.46875 3.820312 -7.84375 3.75 -7.1875 C 3.675781 -6.539062 3.46875 -5.898438 3.125 -5.265625 Z M 3.125 -5.265625 "/></g></g></g><g fill="#ffffff" fill-opacity="1"><g transform="translate(131.950243, 138.01227)"><g><path d="M -3.25 -10.671875 C -2.800781 -11.203125 -2.304688 -11.554688 -1.765625 -11.734375 C -1.222656 -11.921875 -0.640625 -11.910156 -0.015625 -11.703125 C 0.597656 -11.503906 1.269531 -11.09375 2 -10.46875 L 6.015625 -7.0625 L 5.015625 -5.90625 L 1 -9.3125 C 0.320312 -9.894531 -0.304688 -10.210938 -0.890625 -10.265625 C -1.472656 -10.316406 -2.015625 -10.050781 -2.515625 -9.46875 C -2.710938 -9.226562 -2.863281 -8.941406 -2.96875 -8.609375 C -3.082031 -8.285156 -3.140625 -7.9375 -3.140625 -7.5625 C -3.148438 -7.195312 -3.101562 -6.828125 -3 -6.453125 L 1.921875 -2.265625 L 0.921875 -1.078125 L -6 -6.953125 L -5.125 -7.984375 L -4.09375 -7.359375 C -4.132812 -7.753906 -4.132812 -8.148438 -4.09375 -8.546875 C -4.050781 -8.953125 -3.957031 -9.335938 -3.8125 -9.703125 C -3.675781 -10.066406 -3.488281 -10.390625 -3.25 -10.671875 Z M -3.25 -10.671875 "/></g></g></g><g fill="#ffffff" fill-opacity="1"><g transform="translate(140.857994, 128.218324)"><g><path d="M -5.28125 -9.453125 C -5.507812 -9.265625 -5.757812 -9.171875 -6.03125 -9.171875 C -6.3125 -9.171875 -6.546875 -9.28125 -6.734375 -9.5 C -6.929688 -9.726562 -7.007812 -9.984375 -6.96875 -10.265625 C -6.9375 -10.546875 -6.804688 -10.78125 -6.578125 -10.96875 C -6.335938 -11.175781 -6.082031 -11.273438 -5.8125 -11.265625 C -5.539062 -11.265625 -5.304688 -11.148438 -5.109375 -10.921875 C -4.921875 -10.703125 -4.84375 -10.453125 -4.875 -10.171875 C -4.90625 -9.898438 -5.039062 -9.660156 -5.28125 -9.453125 Z M 1.078125 -0.921875 L -4.859375 -7.796875 L -3.6875 -8.8125 L 2.25 -1.9375 Z M 1.078125 -0.921875 "/></g></g></g><g fill="#ffffff" fill-opacity="1"><g transform="translate(146.210493, 123.623065)"><g><path d="M 1.328125 -11.609375 L 2.640625 -12.4375 L 4.359375 -2.765625 L 3.40625 -2.140625 L -4.65625 -7.78125 L -3.25 -8.6875 L 2.640625 -4.46875 L 2.6875 -4.5 Z M 1.328125 -11.609375 "/></g></g></g><g fill="#ffffff" fill-opacity="1"><g transform="translate(155.991901, 117.584564)"><g><path d="M 6.53125 -8.265625 C 6.550781 -8.222656 6.582031 -8.144531 6.625 -8.03125 C 6.675781 -7.914062 6.722656 -7.789062 6.765625 -7.65625 C 6.804688 -7.53125 6.84375 -7.414062 6.875 -7.3125 C 6.914062 -7.207031 6.9375 -7.140625 6.9375 -7.109375 L 0.546875 -4.484375 C 0.742188 -4.109375 0.988281 -3.785156 1.28125 -3.515625 C 1.582031 -3.253906 1.921875 -3.0625 2.296875 -2.9375 C 2.671875 -2.8125 3.066406 -2.753906 3.484375 -2.765625 C 3.898438 -2.773438 4.320312 -2.867188 4.75 -3.046875 C 5.175781 -3.222656 5.546875 -3.425781 5.859375 -3.65625 C 6.171875 -3.882812 6.441406 -4.128906 6.671875 -4.390625 C 6.910156 -4.660156 7.140625 -4.941406 7.359375 -5.234375 L 7.8125 -3.875 C 7.632812 -3.675781 7.421875 -3.445312 7.171875 -3.1875 C 6.929688 -2.925781 6.640625 -2.664062 6.296875 -2.40625 C 5.960938 -2.15625 5.570312 -1.9375 5.125 -1.75 C 4.476562 -1.488281 3.84375 -1.363281 3.21875 -1.375 C 2.59375 -1.382812 2.003906 -1.515625 1.453125 -1.765625 C 0.910156 -2.023438 0.421875 -2.390625 -0.015625 -2.859375 C -0.460938 -3.335938 -0.820312 -3.910156 -1.09375 -4.578125 C -1.351562 -5.222656 -1.488281 -5.851562 -1.5 -6.46875 C -1.519531 -7.09375 -1.421875 -7.675781 -1.203125 -8.21875 C -0.984375 -8.757812 -0.671875 -9.238281 -0.265625 -9.65625 C 0.128906 -10.070312 0.609375 -10.394531 1.171875 -10.625 C 1.773438 -10.875 2.351562 -10.988281 2.90625 -10.96875 C 3.457031 -10.957031 3.96875 -10.835938 4.4375 -10.609375 C 4.90625 -10.390625 5.316406 -10.078125 5.671875 -9.671875 C 6.035156 -9.265625 6.320312 -8.796875 6.53125 -8.265625 Z M 0.109375 -5.609375 L 5.28125 -7.734375 C 5.039062 -8.335938 4.738281 -8.796875 4.375 -9.109375 C 4.007812 -9.421875 3.601562 -9.601562 3.15625 -9.65625 C 2.707031 -9.71875 2.242188 -9.648438 1.765625 -9.453125 C 1.222656 -9.222656 0.789062 -8.921875 0.46875 -8.546875 C 0.15625 -8.171875 -0.03125 -7.726562 -0.09375 -7.21875 C -0.15625 -6.71875 -0.0859375 -6.179688 0.109375 -5.609375 Z M 0.109375 -5.609375 "/></g></g></g><g fill="#ffffff" fill-opacity="1"><g transform="translate(167.58597, 113.187079)"><g><path d="M 4.40625 -10.390625 L 4.796875 -9.015625 C 4.535156 -9.054688 4.285156 -9.070312 4.046875 -9.0625 C 3.804688 -9.050781 3.585938 -9.019531 3.390625 -8.96875 C 2.960938 -8.875 2.582031 -8.644531 2.25 -8.28125 C 1.914062 -7.925781 1.660156 -7.46875 1.484375 -6.90625 L 2.890625 -0.65625 L 1.390625 -0.3125 L -0.609375 -9.171875 L 0.6875 -9.46875 L 1.125 -8.328125 C 1.382812 -8.898438 1.691406 -9.351562 2.046875 -9.6875 C 2.398438 -10.03125 2.796875 -10.25 3.234375 -10.34375 C 3.429688 -10.394531 3.628906 -10.425781 3.828125 -10.4375 C 4.035156 -10.445312 4.226562 -10.429688 4.40625 -10.390625 Z M 4.40625 -10.390625 "/></g></g></g><g fill="#ffffff" fill-opacity="1"><g transform="translate(176.980571, 111.240919)"><g><path d="M 3.734375 0.03125 C 3.378906 0.0507812 3.023438 0.0390625 2.671875 0 C 2.328125 -0.03125 2 -0.0859375 1.6875 -0.171875 C 1.375 -0.253906 1.097656 -0.351562 0.859375 -0.46875 L 0.703125 -2.046875 C 0.972656 -1.890625 1.273438 -1.757812 1.609375 -1.65625 C 1.941406 -1.550781 2.273438 -1.472656 2.609375 -1.421875 C 2.953125 -1.378906 3.269531 -1.367188 3.5625 -1.390625 C 4.09375 -1.421875 4.484375 -1.554688 4.734375 -1.796875 C 4.992188 -2.035156 5.113281 -2.382812 5.09375 -2.84375 C 5.082031 -3.019531 5.039062 -3.164062 4.96875 -3.28125 C 4.90625 -3.394531 4.800781 -3.5 4.65625 -3.59375 C 4.507812 -3.6875 4.3125 -3.78125 4.0625 -3.875 C 3.8125 -3.976562 3.503906 -4.101562 3.140625 -4.25 C 2.316406 -4.539062 1.695312 -4.910156 1.28125 -5.359375 C 0.863281 -5.816406 0.632812 -6.367188 0.59375 -7.015625 C 0.550781 -7.492188 0.628906 -7.921875 0.828125 -8.296875 C 1.035156 -8.679688 1.335938 -8.988281 1.734375 -9.21875 C 2.128906 -9.457031 2.585938 -9.59375 3.109375 -9.625 C 3.472656 -9.65625 3.878906 -9.640625 4.328125 -9.578125 C 4.785156 -9.523438 5.210938 -9.421875 5.609375 -9.265625 L 5.765625 -7.734375 C 5.523438 -7.835938 5.257812 -7.929688 4.96875 -8.015625 C 4.675781 -8.097656 4.390625 -8.15625 4.109375 -8.1875 C 3.835938 -8.226562 3.601562 -8.242188 3.40625 -8.234375 C 3.007812 -8.203125 2.6875 -8.09375 2.4375 -7.90625 C 2.1875 -7.71875 2.078125 -7.4375 2.109375 -7.0625 C 2.117188 -6.820312 2.175781 -6.617188 2.28125 -6.453125 C 2.394531 -6.285156 2.566406 -6.128906 2.796875 -5.984375 C 3.023438 -5.847656 3.34375 -5.703125 3.75 -5.546875 C 4.4375 -5.296875 4.992188 -5.050781 5.421875 -4.8125 C 5.847656 -4.582031 6.164062 -4.316406 6.375 -4.015625 C 6.582031 -3.722656 6.695312 -3.351562 6.71875 -2.90625 C 6.757812 -2.332031 6.65625 -1.832031 6.40625 -1.40625 C 6.15625 -0.988281 5.800781 -0.65625 5.34375 -0.40625 C 4.882812 -0.15625 4.347656 -0.0078125 3.734375 0.03125 Z M 3.734375 0.03125 "/></g></g></g><g fill="#ffffff" fill-opacity="1"><g transform="translate(187.240338, 110.60859)"><g><path d="M 8.578125 -8.21875 L 10.125 -8.046875 L 9.15625 0.984375 L 7.828125 0.84375 L 7.75 -0.390625 C 7.457031 -0.117188 7.132812 0.109375 6.78125 0.296875 C 6.425781 0.484375 6.054688 0.617188 5.671875 0.703125 C 5.285156 0.796875 4.910156 0.828125 4.546875 0.796875 C 3.859375 0.710938 3.285156 0.5 2.828125 0.15625 C 2.378906 -0.175781 2.0625 -0.65625 1.875 -1.28125 C 1.6875 -1.90625 1.644531 -2.695312 1.75 -3.65625 L 2.3125 -8.890625 L 3.84375 -8.71875 L 3.28125 -3.46875 C 3.1875 -2.582031 3.28125 -1.882812 3.5625 -1.375 C 3.84375 -0.863281 4.363281 -0.566406 5.125 -0.484375 C 5.445312 -0.453125 5.773438 -0.484375 6.109375 -0.578125 C 6.441406 -0.671875 6.757812 -0.820312 7.0625 -1.03125 C 7.375 -1.238281 7.65625 -1.484375 7.90625 -1.765625 Z M 8.578125 -8.21875 "/></g></g></g><g fill="#ffffff" fill-opacity="1"><g transform="translate(200.184202, 111.972112)"><g><path d="M 13.953125 -4.984375 C 14.460938 -4.796875 14.859375 -4.5625 15.140625 -4.28125 C 15.429688 -4.007812 15.632812 -3.703125 15.75 -3.359375 C 15.875 -3.023438 15.929688 -2.679688 15.921875 -2.328125 C 15.921875 -1.984375 15.878906 -1.632812 15.796875 -1.28125 C 15.722656 -0.925781 15.632812 -0.59375 15.53125 -0.28125 L 13.671875 4.890625 L 12.203125 4.375 L 14.0625 -0.8125 C 14.164062 -1.125 14.25 -1.425781 14.3125 -1.71875 C 14.375 -2.019531 14.382812 -2.304688 14.34375 -2.578125 C 14.300781 -2.859375 14.1875 -3.109375 14 -3.328125 C 13.8125 -3.546875 13.53125 -3.71875 13.15625 -3.84375 C 12.738281 -3.988281 12.285156 -4.003906 11.796875 -3.890625 C 11.304688 -3.785156 10.832031 -3.570312 10.375 -3.25 C 10.332031 -3.0625 10.285156 -2.882812 10.234375 -2.71875 C 10.179688 -2.5625 10.128906 -2.398438 10.078125 -2.234375 L 8.21875 2.9375 L 6.796875 2.4375 L 8.65625 -2.75 C 8.84375 -3.269531 8.941406 -3.726562 8.953125 -4.125 C 8.960938 -4.519531 8.875 -4.859375 8.6875 -5.140625 C 8.5 -5.421875 8.191406 -5.628906 7.765625 -5.765625 C 7.359375 -5.910156 6.90625 -5.921875 6.40625 -5.796875 C 5.90625 -5.679688 5.429688 -5.457031 4.984375 -5.125 L 2.796875 1 L 1.34375 0.484375 L 4.40625 -8.0625 L 5.65625 -7.625 L 5.453125 -6.46875 C 5.992188 -6.757812 6.53125 -6.945312 7.0625 -7.03125 C 7.601562 -7.113281 8.109375 -7.070312 8.578125 -6.90625 C 9.066406 -6.726562 9.445312 -6.507812 9.71875 -6.25 C 10 -5.988281 10.195312 -5.695312 10.3125 -5.375 C 10.4375 -5.0625 10.503906 -4.738281 10.515625 -4.40625 C 10.898438 -4.625 11.289062 -4.796875 11.6875 -4.921875 C 12.082031 -5.046875 12.472656 -5.113281 12.859375 -5.125 C 13.242188 -5.144531 13.609375 -5.097656 13.953125 -4.984375 Z M 13.953125 -4.984375 "/></g></g></g><g clip-path="url(#ed25c58a02)"><path fill="#366621" d="M 217.804688 166.394531 C 217.699219 166.394531 217.28125 168.695312 216.195312 171.121094 C 215.085938 173.710938 213.25 176.472656 210.929688 178.519531 C 206.328125 182.804688 199.597656 183.933594 195.6875 184.058594 C 192.53125 184.039062 188.039062 182.597656 184.253906 182.21875 C 181.183594 181.800781 178.589844 182.074219 176.875 182.574219 C 171.648438 187.339844 167.90625 193.550781 166.195312 200.449219 C 169.078125 210.796875 174.136719 220.453125 181.117188 228.75 L 175.726562 228.75 C 164.125 211.652344 159.878906 190.957031 163.433594 171.183594 C 161.78125 152.472656 182.375 149.441406 191.175781 138.113281 C 181.472656 149.023438 159.734375 151.429688 161.113281 170.160156 C 159.316406 166.292969 157.183594 160 157.289062 154.773438 C 157.246094 149.441406 159.421875 145.199219 162.722656 142.941406 C 166.695312 139.996094 178.464844 137.882812 185.695312 134.035156 C 189.417969 132.175781 192.136719 129.960938 193.496094 127.933594 C 194.894531 126.007812 195.042969 124.253906 195.25 124.296875 C 195.144531 124.378906 196.359375 127.074219 196.964844 130.378906 C 197.675781 133.890625 197.757812 138.070312 196.816406 141.894531 C 195.125 149.671875 188.917969 155.691406 184.964844 158.660156 C 181.664062 160.917969 175.957031 162.652344 171.734375 164.996094 C 167.90625 166.9375 165.230469 169.363281 163.9375 171.183594 C 162.910156 179.878906 163.394531 188.554688 165.273438 196.875 C 167.699219 191.019531 171.523438 185.960938 176.332031 182.09375 C 183.753906 169.90625 198.238281 176.953125 208.898438 173.609375 C 197.695312 176.324219 182.5 168.128906 174.996094 180.902344 C 175.578125 177.558594 177.042969 172.5 179.445312 169.15625 C 181.808594 165.683594 185.132812 163.90625 188.289062 163.929688 C 192.175781 163.78125 200.769531 167.710938 207.207031 168.464844 C 210.46875 168.945312 213.207031 168.714844 215.023438 168.003906 C 216.800781 167.355469 217.679688 166.292969 217.804688 166.394531 Z M 217.804688 166.394531 " fill-opacity="1" fill-rule="nonzero"/></g><g clip-path="url(#04959ffc32)"><g clip-path="url(#ea848fc37a)"><g clip-path="url(#45aa75fc4a)"><path fill="#e1e024" d="M 103.898438 265.34375 C 102.949219 264.816406 101.765625 261.511719 102.554688 259.71875 C 103.253906 258.050781 103.484375 257.726562 104.789062 256.589844 C 105.941406 255.59375 107.679688 255.015625 109.152344 254.886719 C 109.664062 254.855469 109.875 254.765625 110.34375 254.800781 L 111.496094 254.839844 C 112.203125 254.949219 113.253906 255.0625 114.007812 255.449219 C 113.832031 256.113281 113.851562 257.257812 113.757812 258.074219 C 113.304688 260.847656 111.070312 263.628906 108.632812 264.839844 C 107.265625 265.585938 104.847656 265.875 103.898438 265.34375 Z M 82.355469 228.4375 C 81.777344 229.449219 82.019531 230.558594 82.132812 231.570312 L 82.335938 232.457031 C 82.335938 232.457031 82.347656 232.511719 82.355469 232.566406 C 82.683594 233.488281 83.183594 234.4375 83.722656 235.265625 C 84.796875 236.863281 86.109375 237.851562 87.644531 239.144531 C 88.84375 240.148438 90.59375 241.003906 91.980469 241.746094 C 93.488281 242.527344 94.800781 243.167969 96.363281 243.597656 C 96.96875 243.78125 97.871094 244.03125 98.578125 244.144531 L 105.007812 245.535156 C 107.707031 246.234375 109.109375 246.402344 111.035156 248.660156 C 112.246094 250.066406 113.570312 252.140625 113.699219 253.953125 C 111.671875 252.800781 107.957031 251.527344 105.539062 251.816406 C 104.246094 251.976562 103.1875 252.152344 102.015625 252.691406 C 100.367188 253.484375 98.738281 255.421875 98.089844 257.363281 C 97.933594 257.792969 98.023438 257.664062 97.996094 258.183594 C 97.847656 260.042969 98.632812 261.980469 99.886719 263.320312 C 102.167969 265.632812 105.660156 268.320312 108.933594 268.691406 C 109.753906 268.785156 111.175781 268.71875 111.929688 268.421875 C 116.375 266.53125 118.636719 262.539062 118.28125 257.664062 C 119.609375 258.417969 120.335938 258.984375 121.519531 259.875 C 125.996094 262.972656 128.453125 264.628906 133.699219 265.472656 C 135.589844 265.789062 137.496094 265.527344 139.355469 265.332031 C 140.59375 265.179688 141.71875 264.707031 142.84375 264.230469 L 143.003906 264.148438 C 143.058594 264.136719 143.050781 264.082031 143.105469 264.074219 C 143.160156 264.0625 143.160156 264.0625 143.207031 264 L 144.128906 263.671875 C 144.285156 263.589844 144.386719 263.515625 144.601562 263.421875 L 148.332031 260.675781 C 148.621094 260.339844 148.878906 260.179688 149.167969 259.847656 C 149.707031 259.296875 150.359375 258.386719 150.9375 257.714844 C 152.664062 255.703125 154.671875 251.238281 158.992188 251.320312 C 161.066406 251.375 161.476562 252.453125 162.582031 254.277344 C 163.859375 256.417969 164.390625 258.910156 165.507812 261.132812 C 165.769531 261.664062 165.945312 262.035156 166.140625 262.519531 C 166.328125 262.945312 166.578125 263.421875 166.875 263.832031 C 167.75 265.289062 168.503906 266.371094 169.921875 267.625 C 172.824219 270.238281 175.691406 272.285156 179.421875 273.667969 C 179.792969 273.835938 179.972656 273.863281 180.222656 273.992188 C 180.40625 274.078125 180.707031 274.140625 181.003906 274.207031 C 182.679688 274.617188 184.261719 274.8125 185.980469 274.808594 C 187.871094 274.78125 189.785156 274.230469 191.460938 273.609375 C 192.699219 273.113281 193.675781 272.433594 194.761719 271.734375 C 195.648438 271.1875 196.492188 270.414062 197.328125 269.585938 C 198.066406 268.832031 201.28125 264.738281 200.808594 263.609375 C 200.519531 262.914062 197.296875 261.15625 196.636719 260.980469 L 195.167969 263.863281 C 193.214844 267.289062 189.597656 270.015625 185.878906 271.097656 L 183.953125 271.589844 C 183.671875 271.636719 183.550781 271.601562 183.273438 271.648438 L 182.601562 271.761719 C 181.644531 271.863281 180.582031 271.695312 179.605469 271.6875 C 177.753906 271.59375 175.113281 270.886719 173.632812 269.585938 C 171.816406 267.996094 170.140625 264.832031 169.359375 262.554688 C 169.351562 262.5 169.351562 262.5 169.339844 262.441406 C 169.332031 262.386719 169.332031 262.386719 169.324219 262.332031 C 169.3125 262.277344 169.292969 262.164062 169.292969 262.164062 L 166.882812 256.65625 C 166.632812 256.183594 166.332031 255.773438 166.035156 255.363281 C 165.011719 254.042969 165.179688 254.359375 164.472656 253.558594 C 164.324219 253.355469 164.171875 253.152344 163.96875 252.957031 C 163.101562 252.238281 162.164062 251.421875 161.203125 250.835938 C 160.886719 250.660156 160.636719 250.527344 160.375 250.34375 L 157.667969 248.902344 C 156.441406 248.417969 154.664062 248.082031 153.359375 248.53125 C 151.089844 249.371094 150.558594 249.972656 148.914062 251.796875 C 148.085938 252.683594 147.519531 253.753906 146.804688 254.617188 C 146.132812 255.417969 145.511719 256.5 144.765625 257.195312 C 144.515625 257.410156 144.460938 257.421875 144.171875 257.753906 C 143.828125 258.097656 143.976562 257.960938 143.566406 258.257812 L 141.261719 259.90625 C 139.921875 260.816406 137.828125 261.683594 136.238281 262.121094 C 134.917969 262.457031 133.605469 262.503906 132.238281 262.5625 L 129.464844 262.449219 C 128.070312 262.339844 124.914062 261.316406 123.75 260.535156 L 117.933594 256.632812 C 117.960938 255.765625 117.777344 255.683594 117.476562 254.929688 C 116.554688 252.5 115.53125 251.523438 113.773438 249.582031 C 113.140625 248.882812 112.300781 248.335938 111.621094 247.703125 C 110.152344 246.457031 107.464844 245.125 105.703125 244.214844 C 102.941406 242.785156 97.21875 241.503906 93.980469 241.011719 C 92.566406 240.789062 91.636719 240.371094 90.417969 239.941406 C 89.167969 239.347656 88.628906 238.519531 87.875 237.441406 C 86.480469 235.609375 86.003906 233.449219 86.671875 231.273438 Z M 82.355469 228.4375 " fill-opacity="1" fill-rule="evenodd"/></g></g></g><g clip-path="url(#80d7e137a0)"><g clip-path="url(#a67482d786)"><g clip-path="url(#2cbb0b02a6)"><path fill="#e1e024" d="M 179.535156 191.722656 C 157.277344 205.867188 135.464844 216.269531 117.8125 221.839844 C 116.746094 222.175781 116.511719 223.371094 117.558594 223.125 C 136.894531 218.589844 163.152344 206.851562 190.050781 189.757812 C 237.71875 159.464844 269.332031 123.847656 260.660156 110.203125 C 257.914062 105.882812 251.457031 104.289062 242.402344 105.085938 C 239.789062 105.3125 237.777344 108.585938 240.019531 108.957031 C 244.09375 109.628906 247.070312 111.214844 248.703125 113.785156 C 257.199219 127.152344 226.230469 162.046875 179.535156 191.722656 Z M 179.535156 191.722656 " fill-opacity="1" fill-rule="nonzero"/></g></g></g><path stroke-linecap="butt" transform="matrix(0.528956, 0.5317, -0.5317, 0.528956, 239.81533, 244.621009)" fill="none" stroke-linejoin="miter" d="M -0.00109052 2.002545 L 129.723973 1.998397 " stroke="#a6a6a6" stroke-width="4" stroke-opacity="1" stroke-miterlimit="4"/></svg>